<?xml version="1.0" encoding="UTF-8" standalone="no"?>
<svg
   xmlns:dc="http://purl.org/dc/elements/1.1/"
   xmlns:cc="http://creativecommons.org/ns#"
   xmlns:rdf="http://www.w3.org/1999/02/22-rdf-syntax-ns#"
   xmlns:svg="http://www.w3.org/2000/svg"
   xmlns="http://www.w3.org/2000/svg"
   xmlns:sodipodi="http://sodipodi.sourceforge.net/DTD/sodipodi-0.dtd"
   xmlns:inkscape="http://www.inkscape.org/namespaces/inkscape"
   id="svg8"
   width="89.99999"
   height="380.00004"
   viewBox="0 0 89.99999 380.00004"
   version="1.1"
   sodipodi:docname="2To4.svg"
   inkscape:version="1.0.1 (3bc2e813f5, 2020-09-07)">
  <metadata
     id="metadata133">
    <rdf:RDF>
      <cc:Work
         rdf:about="">
        <dc:format>image/svg+xml</dc:format>
        <dc:type
           rdf:resource="http://purl.org/dc/dcmitype/StillImage" />
      </cc:Work>
    </rdf:RDF>
  </metadata>
  <defs
     id="defs131" />
  <sodipodi:namedview
     pagecolor="#ffffff"
     bordercolor="#666666"
     borderopacity="1"
     objecttolerance="10"
     gridtolerance="10"
     guidetolerance="10"
     inkscape:pageopacity="0"
     inkscape:pageshadow="2"
     inkscape:window-width="640"
     inkscape:window-height="480"
     id="namedview129"
     showgrid="false"
     inkscape:zoom="2.6737951"
     inkscape:cx="65.344195"
     inkscape:cy="55.730436"
     inkscape:current-layer="svg8"
     inkscape:document-rotation="0"
     inkscape:snap-midpoints="true"
     inkscape:object-nodes="false" />
  <title
     id="title2">2To4</title>
  <g
     id="layer1">
    <path
       id="rect817"
       d="M0,0H90V380H0Z"
       transform="translate(0 0.00002)"
       style="fill: #f0f0f0" />
  </g>
  <rect
     style="fill:#000000;fill-opacity:1;stroke:none;stroke-width:0.884521;stroke-miterlimit:10;paint-order:markers fill stroke;stop-color:#000000"
     id="rect914"
     width="89.999992"
     height="16"
     x="5.3290705e-15"
     y="347.88577" />
  <g
     id="g22">
    <path
       d="M25.78415,361.57842H24.17823v-5.3311H18.10212v5.3311H16.49619V350.15468h1.60593v4.71854h6.07611v-4.71854h1.60593Z"
       transform="translate(0 0.00002)"
       style="fill:#f0f0f0;fill-opacity:1"
       id="path6" />
    <path
       d="M33.99163,361.57842H27.17051V350.15468h6.68867v1.34109H28.77644v3.41053h4.8013v1.341h-4.8013v3.97347h5.21519Z"
       transform="translate(0 0.00002)"
       style="fill:#f0f0f0;fill-opacity:1"
       id="path8" />
    <path
       d="M42.86514,351.49577H39.65329v10.08265h-1.606V351.49577H34.81891v-1.34109h8.04624Z"
       transform="translate(0 0.00002)"
       style="fill:#f0f0f0;fill-opacity:1"
       id="path10" />
    <path
       d="M51.62163,361.57842H49.68452l-2.98-4.91715H45.47936v4.91715h-1.606V350.15468h3.22846a4.37325,4.37325,0,0,1,2.74834.79469A3.185,3.185,0,0,1,48.36,356.49568Zm-3.04632-9.70191a3.04673,3.04673,0,0,0-1.92045-.41389h-1.1755v3.87416h1.1755a3.15908,3.15908,0,0,0,1.92045-.39735,1.72712,1.72712,0,0,0,.72853-1.5397A1.69838,1.69838,0,0,0,48.57531,351.87651Z"
       transform="translate(0 0.00002)"
       style="fill:#f0f0f0;fill-opacity:1"
       id="path12" />
    <path
       d="M54.41922,361.57842H52.81317V350.15468h1.60605Z"
       transform="translate(0 0.00002)"
       style="fill:#f0f0f0;fill-opacity:1"
       id="path14" />
    <path
       d="M65.54207,360.08834A5.35543,5.35543,0,0,1,61.37,361.77709a5.89517,5.89517,0,1,1,4.05617-10.28133l-.67878,1.29135a4.52732,4.52732,0,0,0-3.31122-1.39071,4.45825,4.45825,0,0,0,0,8.90722,4.52188,4.52188,0,0,0,3.41059-1.39071Z"
       transform="translate(0 0.00002)"
       style="fill: #ed3224"
       id="path16" />
    <path
       d="M75.45235,361.57842H73.4987L69.70743,355.85l-1.1755,1.192v4.5364H66.92588V350.15468h1.60605v4.86753l4.65225-4.86753h1.95353l-4.35415,4.50326Z"
       transform="translate(0 0.00002)"
       style="fill: #ed3224"
       id="path18" />
    <path
       d="M75.45235,361.57842H73.4987L69.70743,355.85l-1.1755,1.192v4.5364H66.92588V357.019l1.60605.023,1.1755-1.192,1.07613-1.192.61637.91363.49748.7374Z"
       transform="translate(0 0.00002)"
       id="path20"
       style="fill:#f0f0f0;fill-opacity:1" />
  </g>
  <g
     id="g32">
    <path
       d="M32.78125,28.83643H24.39063l-.252-1.17041,4.39355-4.15918c.9541-.91846,2.0166-2.05273,2.0166-3.439a2.34681,2.34681,0,0,0-2.55664-2.4126,3.6782,3.6782,0,0,0-3.043,1.99854l-.91846-1.02637a4.42763,4.42763,0,0,1,4.06934-2.39453c2.48486,0,4.15918,1.458,4.15918,3.65479s-1.85449,3.74512-2.62891,4.46533l-3.187,3.043h6.33789Z"
       transform="translate(0 0.00002)"
       id="path24" />
    <path
       d="M42.5,28.74658a4.33218,4.33218,0,0,1-1.56641.28809,2.009,2.009,0,0,1-1.81885-.88232,4.46855,4.46855,0,0,1-.43213-2.55713V21.68848H37.42236V20.30176h1.26025V17.74512h1.72852v2.55664h2.05273v1.38672H40.41113v3.87109a3.359,3.359,0,0,0,.21631,1.56641.89555.89555,0,0,0,.88232.43213,2.08633,2.08633,0,0,0,.88232-.19824Z"
       transform="translate(0 0.00002)"
       id="path26" />
    <path
       d="M47.71973,29.03467a4.457,4.457,0,1,1,4.51953-4.44727A4.336,4.336,0,0,1,47.71973,29.03467Zm0-7.5083A2.78246,2.78246,0,0,0,44.9292,24.5332a2.79129,2.79129,0,1,0,5.563,0A2.77864,2.77864,0,0,0,47.71973,21.52637Z"
       transform="translate(0 0.00002)"
       id="path28" />
    <path
       d="M66.62207,26.11768H64.82129v2.71875H63.12891V26.11768H56.86328V24.83936l6.13965-8.49854h1.81836v8.33643h1.80078Zm-3.47559-1.42236V18.39307l-4.57324,6.30225Z"
       transform="translate(0 0.00002)"
       id="path30" />
  </g>
  <g
     id="g40"
     transform="translate(0,-3.9997)">
    <path
       d="M 14.50879,138 H 13.3457 v -8.27539 h 1.16309 z"
       transform="translate(0,2e-5)"
       id="path34" />
    <path
       d="m 21.1665,138 h -1.15136 v -3.17822 c 0,-0.95947 -0.16748,-1.6792 -1.187,-1.6792 -1.06738,0 -1.46338,0.89941 -1.46338,1.99121 V 138 h -1.15138 v -5.69678 h 1.15137 l -0.01172,0.89941 h 0.03564 a 1.92488,1.92488 0 0 1 1.73926,-1.00732 c 1.61914,0 2.03857,1.06738 2.03857,2.43457 z"
       transform="translate(0,2e-5)"
       id="path36" />
    <path
       d="M 32.08594,138 H 30.79 l -0.85156,-2.15869 h -3.5498 L 25.53711,138 H 24.314 l 3.36963,-8.29932 h 1.01953 z m -2.4707,-3.13037 -1.45117,-3.71777 -1.45166,3.71777 z"
       transform="translate(0,2e-5)"
       id="path38" />
  </g>
  <g
     id="g48"
     transform="translate(0,-3.9997)">
    <path
       d="m 59.19043,137.99951 h -1.16309 v -8.27539 h 1.16309 z"
       transform="translate(0,2e-5)"
       id="path42" />
    <path
       d="m 65.84766,137.99951 h -1.15137 v -3.17822 c 0,-0.95947 -0.167,-1.6792 -1.18652,-1.6792 -1.06738,0 -1.46387,0.89941 -1.46387,1.99121 v 2.86621 h -1.15137 v -5.69678 h 1.15137 l -0.01172,0.89941 h 0.03613 a 1.92432,1.92432 0 0 1 1.73926,-1.00732 c 1.61914,0 2.03809,1.06738 2.03809,2.43457 z"
       transform="translate(0,2e-5)"
       id="path44" />
    <path
       d="m 74.668,137.46 a 3.20121,3.20121 0 0 1 -2.08691,0.53955 h -2.68656 v -8.27539 H 72.125 a 3.57651,3.57651 0 0 1 1.9668,0.39551 1.84167,1.84167 0 0 1 0.8877,1.6792 1.88569,1.88569 0 0 1 -1.25879,1.811 v 0.0239 a 2.02356,2.02356 0 0 1 1.835,2.01514 A 2.15973,2.15973 0 0 1 74.668,137.46 Z m -1.40332,-6.58447 a 2.13026,2.13026 0 0 0 -1.13965,-0.228 h -1.06741 v 2.62646 h 0.97168 a 2.0492,2.0492 0 0 0 1.23535,-0.25146 1.23535,1.23535 0 0 0 0.55176,-1.0918 1.10181,1.10181 0 0 0 -0.55176,-1.05524 z m 0.49121,3.58594 a 2.53671,2.53671 0 0 0 -1.45117,-0.2998 h -1.2471 v 2.89063 h 1.24707 a 2.53282,2.53282 0 0 0 1.45117,-0.28809 1.28417,1.28417 0 0 0 0.60059,-1.16357 1.24494,1.24494 0 0 0 -0.60059,-1.13921 z"
       transform="translate(0,2e-5)"
       id="path46" />
  </g>
  <rect
     x="24.429131"
     y="144.66669"
     width="41.14172"
     height="180.66667"
     rx="8"
     ry="8"
     id="rect52" />
  <g
     id="g60"
     style="fill:#f0f0f0;fill-opacity:1"
     transform="translate(0.22922218)">
    <path
       d="m 41.35986,186 h -1.29541 l -0.85156,-2.15869 h -3.5498 L 34.81152,186 h -1.22314 l 3.37012,-8.29932 h 1.019 z m -2.4707,-3.13037 -1.45116,-3.71777 -1.45117,3.71777 z"
       transform="translate(0,2e-5)"
       style="fill:#f0f0f0;fill-opacity:1"
       id="path54" />
    <path
       d="m 48.51172,182.30615 h -2.686 v 2.68652 H 44.938 v -2.68652 h -2.69825 v -0.8877 H 44.938 v -2.68652 h 0.8877 v 2.68652 h 2.686 z"
       transform="translate(0,2e-5)"
       style="fill:#f0f0f0;fill-opacity:1"
       id="path56" />
    <path
       d="M 55.06445,185.46045 A 3.20121,3.20121 0 0 1 52.97754,186 H 50.291 v -8.27539 h 2.23047 a 3.57651,3.57651 0 0 1 1.9668,0.39551 1.84167,1.84167 0 0 1 0.8877,1.6792 1.88569,1.88569 0 0 1 -1.25879,1.811 v 0.0239 a 2.02356,2.02356 0 0 1 1.835,2.01514 2.15973,2.15973 0 0 1 -0.88773,1.81106 z M 53.66113,178.876 a 2.13026,2.13026 0 0 0 -1.13965,-0.228 H 51.4541 v 2.62646 h 0.97168 a 2.0492,2.0492 0 0 0 1.23535,-0.25146 1.23535,1.23535 0 0 0 0.55176,-1.0918 1.10181,1.10181 0 0 0 -0.55176,-1.0552 z m 0.49121,3.58594 a 2.53671,2.53671 0 0 0 -1.45117,-0.2998 H 51.4541 v 2.89063 h 1.24707 a 2.53282,2.53282 0 0 0 1.45117,-0.28809 1.2834,1.2834 0 0 0 0.59961,-1.16357 1.24416,1.24416 0 0 0 -0.59961,-1.1392 z"
       transform="translate(0,2e-5)"
       style="fill:#f0f0f0;fill-opacity:1"
       id="path58" />
  </g>
  <g
     id="g68"
     style="fill:#f0f0f0;fill-opacity:1"
     transform="translate(0.22946784)">
    <path
       d="M 43.75977,321.333 H 42.46436 L 41.6128,319.1748 H 38.063 l -0.85156,2.1582 h -1.22316 l 3.37012,-8.29883 h 1.019 z m -2.4707,-3.12988 -1.45117,-3.71777 -1.45117,3.71777 z"
       transform="translate(0,2e-5)"
       style="fill:#f0f0f0;fill-opacity:1"
       id="path62" />
    <path
       d="m 46.67773,318.52637 h -2.90185 v -0.959 h 2.90186 z"
       transform="translate(0,2e-5)"
       style="fill:#f0f0f0;fill-opacity:1"
       id="path64" />
    <path
       d="m 52.66406,320.79395 a 3.20239,3.20239 0 0 1 -2.08691,0.53906 H 47.8916 v -8.27539 h 2.23047 a 3.58082,3.58082 0 0 1 1.9668,0.39551 1.84251,1.84251 0 0 1 0.8877,1.67969 1.88631,1.88631 0 0 1 -1.25977,1.81055 v 0.0244 a 2.0231,2.0231 0 0 1 1.835,2.01465 2.16133,2.16133 0 0 1 -0.88774,1.81152 z m -1.40332,-6.585 a 2.12906,2.12906 0 0 0 -1.13867,-0.22754 h -1.06738 v 2.626 h 0.9707 a 2.04954,2.04954 0 0 0 1.23535,-0.251 1.23323,1.23323 0 0 0 0.55176,-1.0918 1.10264,1.10264 0 0 0 -0.55176,-1.05561 z m 0.49219,3.58594 a 2.54406,2.54406 0 0 0 -1.45117,-0.2998 h -1.24707 v 2.89063 h 1.24707 a 2.53216,2.53216 0 0 0 1.45117,-0.28809 1.28459,1.28459 0 0 0 0.59961,-1.16309 1.24738,1.24738 0 0 0 -0.59961,-1.13962 z"
       transform="translate(0,2e-5)"
       style="fill:#f0f0f0;fill-opacity:1"
       id="path66" />
  </g>
  <g
     id="g82"
     style="fill:#f0f0f0;fill-opacity:1"
     transform="translate(0.14500931)">
    <path
       d="m 34.01855,273.19336 h -2.90234 v -0.96 h 2.90234 z"
       transform="translate(0,2e-5)"
       style="fill:#f0f0f0;fill-opacity:1"
       id="path70" />
    <path
       d="m 36.6709,277.77441 a 9.4772,9.4772 0 0 1 0,-11.00977 l 0.73193,0.39551 a 9.72029,9.72029 0 0 0 0,10.21875 z"
       transform="translate(0,2e-5)"
       style="fill:#f0f0f0;fill-opacity:1"
       id="path72" />
    <path
       d="m 45.51172,276 h -1.29541 l -0.85156,-2.15918 h -3.5498 L 38.96338,276 h -1.22315 l 3.37012,-8.2998 h 1.019 z m -2.4707,-3.13086 -1.45117,-3.71777 -1.45117,3.71777 z"
       transform="translate(0,2e-5)"
       style="fill:#f0f0f0;fill-opacity:1"
       id="path74" />
    <path
       d="m 48.42969,273.19336 h -2.90186 v -0.96 h 2.90186 z"
       transform="translate(0,2e-5)"
       style="fill:#f0f0f0;fill-opacity:1"
       id="path76" />
    <path
       d="M 54.416,275.46 A 3.19667,3.19667 0 0 1 52.32909,276 h -2.68554 v -8.27539 H 51.874 a 3.57222,3.57222 0 0 1 1.9668,0.39551 1.84083,1.84083 0 0 1 0.8877,1.67871 1.88667,1.88667 0 0 1 -1.25977,1.81152 v 0.0234 a 2.024,2.024 0 0 1 1.835,2.01563 A 2.15813,2.15813 0 0 1 54.416,275.46 Z m -1.40332,-6.584 a 2.12821,2.12821 0 0 0 -1.13867,-0.22852 h -1.06737 v 2.627 h 0.9707 a 2.0417,2.0417 0 0 0 1.23535,-0.252 1.23323,1.23323 0 0 0 0.55176,-1.0918 1.101,1.101 0 0 0 -0.55175,-1.05468 z m 0.49219,3.58594 a 2.53618,2.53618 0 0 0 -1.45117,-0.2998 h -1.24706 v 2.89063 h 1.24707 a 2.54006,2.54006 0 0 0 1.45117,-0.28809 1.28621,1.28621 0 0 0 0.59961,-1.16406 1.24477,1.24477 0 0 0 -0.59961,-1.13871 z"
       transform="translate(0,2e-5)"
       style="fill:#f0f0f0;fill-opacity:1"
       id="path78" />
    <path
       d="m 56.81836,277.77441 -0.73145,-0.39551 a 9.72029,9.72029 0 0 0 0,-10.21875 l 0.73145,-0.39551 a 9.42208,9.42208 0 0 1 0,11.00977 z"
       transform="translate(0,2e-5)"
       style="fill:#f0f0f0;fill-opacity:1"
       id="path80" />
  </g>
  <g
     id="g96"
     style="fill:#f0f0f0;fill-opacity:1"
     transform="translate(0.14549931)">
    <path
       d="m 31.61816,228.52637 h -2.90234 v -0.959 h 2.90234 z"
       transform="translate(0,2e-5)"
       style="fill:#f0f0f0;fill-opacity:1"
       id="path84" />
    <path
       d="m 34.27051,233.1084 a 9.4772,9.4772 0 0 1 0,-11.00977 l 0.73193,0.39551 a 9.72029,9.72029 0 0 0 0,10.21875 z"
       transform="translate(0,2e-5)"
       style="fill:#f0f0f0;fill-opacity:1"
       id="path86" />
    <path
       d="m 43.11133,231.333 h -1.29541 l -0.85156,-2.1582 h -3.5498 L 36.563,231.333 H 35.33984 L 38.71,223.03418 h 1.019 z m -2.4707,-3.12988 -1.45117,-3.71777 -1.45117,3.71777 z"
       transform="translate(0,2e-5)"
       style="fill:#f0f0f0;fill-opacity:1"
       id="path88" />
    <path
       d="m 50.26367,227.63965 h -2.68652 v 2.68652 h -0.8877 v -2.68652 H 43.9917 v -0.8877 h 2.69775 v -2.68652 h 0.8877 v 2.68657 h 2.68652 z"
       transform="translate(0,2e-5)"
       style="fill:#f0f0f0;fill-opacity:1"
       id="path90" />
    <path
       d="m 56.81543,230.79395 a 3.20239,3.20239 0 0 1 -2.08691,0.53906 H 52.042 v -8.27539 h 2.23145 a 3.58082,3.58082 0 0 1 1.9668,0.39551 1.84251,1.84251 0 0 1 0.8877,1.67969 1.88631,1.88631 0 0 1 -1.25977,1.81055 v 0.0244 a 2.0231,2.0231 0 0 1 1.835,2.01465 2.16133,2.16133 0 0 1 -0.88775,1.81152 z m -1.40332,-6.585 a 2.12906,2.12906 0 0 0 -1.13867,-0.22754 h -1.06739 v 2.626 h 0.9707 a 2.04954,2.04954 0 0 0 1.23535,-0.251 1.23323,1.23323 0 0 0 0.55176,-1.0918 1.10264,1.10264 0 0 0 -0.55175,-1.05561 z m 0.49219,3.58594 a 2.54406,2.54406 0 0 0 -1.45117,-0.2998 h -1.24708 v 2.89063 h 1.24707 a 2.53216,2.53216 0 0 0 1.45117,-0.28809 1.2826,1.2826 0 0 0 0.59961,-1.16309 1.24546,1.24546 0 0 0 -0.5996,-1.13962 z"
       transform="translate(0,2e-5)"
       style="fill:#f0f0f0;fill-opacity:1"
       id="path92" />
    <path
       d="m 59.21777,233.1084 -0.73145,-0.39551 a 9.72029,9.72029 0 0 0 0,-10.21875 l 0.73145,-0.39551 a 9.42208,9.42208 0 0 1 0,11.00977 z"
       transform="translate(0,2e-5)"
       style="fill:#f0f0f0;fill-opacity:1"
       id="path94" />
  </g>
  <g
     id="g126"
     transform="translate(0,-4)">
    <path
       id="rect108"
       style="fill:none;stroke:#000000;stroke-miterlimit:10"
       d="m 70.696281,74.791687 h 12.75 v 12.75 h -12.75 z m 0,-12.749996 h 12.75 v 12.75 h -12.75 z m 0,-12.75 h 12.75 v 12.75 h -12.75 z m 0,-12.75 h 12.75 v 12.75 h -12.75 z" />
    <path
       id="path897"
       style="fill:none;stroke:#000000;stroke-width:1px;stroke-linecap:butt;stroke-linejoin:miter;stroke-opacity:1"
       d="M 18.75 64.625017 L 18.75 64.625017 L 70.696281 64.416689 "
       transform="translate(0,4)" />
    <path
       id="path969"
       style="fill:none;stroke:#000000;stroke-width:1px;stroke-linecap:butt;stroke-linejoin:miter;stroke-opacity:1"
       d="M 70.696281 77.166687 L 18.75 64.625017 "
       transform="translate(0,4)" />
    <path
       id="path899"
       style="fill:none;stroke:#000000;stroke-width:1px;stroke-linecap:butt;stroke-linejoin:miter;stroke-opacity:1"
       d="M 18.75 64.625017 L 70.696281 38.916691 "
       transform="translate(0,4)" />
    <path
       id="path987"
       style="fill:none;stroke:#000000;stroke-width:1px;stroke-linecap:butt;stroke-linejoin:miter;stroke-opacity:1"
       d="M 18.75 64.625017 L 18.75 64.625017 L 18.75 64.625017 "
       transform="translate(0,4)" />
    <path
       id="path978"
       style="fill:none;stroke:#000000;stroke-width:1px;stroke-linecap:butt;stroke-linejoin:miter;stroke-opacity:1"
       d="M 70.696281 51.666691 L 18.75 64.625017 "
       transform="translate(0,4)" />
    <path
       id="path901"
       style="fill:none;stroke:#000000;stroke-width:1px;stroke-linecap:butt;stroke-linejoin:miter;stroke-opacity:1"
       d="M 18.75 51.875019 L 70.696281 51.666691 "
       transform="translate(0,4)" />
    <path
       id="path940"
       style="fill:none;stroke:#000000;stroke-width:1px;stroke-linecap:butt;stroke-linejoin:miter;stroke-opacity:1"
       d="M 70.696281 38.916691 L 18.75 51.875019 L 18.75 51.875019 "
       transform="translate(0,4)" />
    <path
       id="path903"
       style="fill:none;stroke:#000000;stroke-width:1px;stroke-linecap:butt;stroke-linejoin:miter;stroke-opacity:1"
       d="M 18.75 51.875019 L 70.696281 77.166687 "
       transform="translate(0,4)" />
    <path
       id="path949"
       style="fill:none;stroke:#000000;stroke-width:1px;stroke-linecap:butt;stroke-linejoin:miter;stroke-opacity:1"
       d="M 70.696281 64.416689 L 18.75 51.875019 L 18.75 51.875019 "
       transform="translate(0,4)" />
    <path
       id="rect100"
       style="fill:none;stroke:#000000;stroke-miterlimit:10"
       d="m 6,62.250019 h 12.75 v 12.75 H 6 Z m 0,-12.75 h 12.75 v 12.75 H 6 Z" />
  </g>
</svg>
