<?xml version="1.0" encoding="UTF-8" standalone="no"?>
<svg
   xmlns:dc="http://purl.org/dc/elements/1.1/"
   xmlns:cc="http://creativecommons.org/ns#"
   xmlns:rdf="http://www.w3.org/1999/02/22-rdf-syntax-ns#"
   xmlns:svg="http://www.w3.org/2000/svg"
   xmlns="http://www.w3.org/2000/svg"
   xmlns:sodipodi="http://sodipodi.sourceforge.net/DTD/sodipodi-0.dtd"
   xmlns:inkscape="http://www.inkscape.org/namespaces/inkscape"
   id="svg8"
   width="89.99999"
   height="380.00004"
   viewBox="0 0 89.99999 380.00004"
   version="1.1"
   sodipodi:docname="Boolean3.svg"
   inkscape:version="1.0.1 (3bc2e813f5, 2020-09-07)">
  <metadata
     id="metadata135">
    <rdf:RDF>
      <cc:Work
         rdf:about="">
        <dc:format>image/svg+xml</dc:format>
        <dc:type
           rdf:resource="http://purl.org/dc/dcmitype/StillImage" />
      </cc:Work>
    </rdf:RDF>
  </metadata>
  <defs
     id="defs133" />
  <sodipodi:namedview
     pagecolor="#ffffff"
     bordercolor="#666666"
     borderopacity="1"
     objecttolerance="10"
     gridtolerance="10"
     guidetolerance="10"
     inkscape:pageopacity="0"
     inkscape:pageshadow="2"
     inkscape:window-width="640"
     inkscape:window-height="480"
     id="namedview131"
     showgrid="false"
     inkscape:zoom="1.9342104"
     inkscape:cx="44.999996"
     inkscape:cy="190.00002"
     inkscape:current-layer="g22"
     inkscape:document-rotation="0" />
  <title
     id="title2">Boolean3</title>
  <g
     id="layer1">
    <path
       id="rect817"
       d="M0,0H90V380H0Z"
       transform="translate(0 0.00002)"
       style="fill: #f0f0f0" />
  </g>
  <g
     id="g128">
    <rect
       style="fill:#000000;fill-opacity:1;stroke:none;stroke-width:0.884521;stroke-miterlimit:10;paint-order:markers fill stroke;stop-color:#000000"
       id="rect914"
       width="89.999992"
       height="16"
       x="5.3290705e-15"
       y="347.88577" />
    <rect
       x="38.87325"
       y="33.29169"
       width="12.75"
       height="12.75"
       style="fill: none;stroke: #000;stroke-miterlimit: 10"
       id="rect118" />
    <rect
       x="14.76631"
       y="33.29169"
       width="12.75"
       height="12.75"
       style="fill: none;stroke: #000;stroke-miterlimit: 10"
       id="rect120" />
    <rect
       x="62.98018"
       y="33.29169"
       width="12.75"
       height="12.75"
       style="fill: none;stroke: #000;stroke-miterlimit: 10"
       id="rect122" />
    <line
       x1="27.51631"
       y1="39.66669"
       x2="38.87325"
       y2="39.66669"
       style="fill: none;stroke: #000;stroke-miterlimit: 10"
       id="line124" />
    <line
       x1="51.62325"
       y1="39.66669"
       x2="62.98018"
       y2="39.66669"
       style="fill: none;stroke: #000;stroke-miterlimit: 10"
       id="line126" />
  </g>
  <g
     id="g22">
    <path
       d="M25.78415,361.57842H24.17823v-5.3311H18.10212v5.3311H16.49619V350.15468h1.60593v4.71854h6.07611v-4.71854h1.60593Z"
       transform="translate(0 0.00002)"
       style="fill:#f0f0f0;fill-opacity:1"
       id="path6" />
    <path
       d="M33.99163,361.57842H27.17051V350.15468h6.68867v1.34109H28.77644v3.41053h4.8013v1.341h-4.8013v3.97347h5.21519Z"
       transform="translate(0 0.00002)"
       style="fill:#f0f0f0;fill-opacity:1"
       id="path8" />
    <path
       d="M42.86514,351.49577H39.65329v10.08265h-1.606V351.49577H34.81891v-1.34109h8.04624Z"
       transform="translate(0 0.00002)"
       style="fill:#f0f0f0;fill-opacity:1"
       id="path10" />
    <path
       d="M51.62163,361.57842H49.68452l-2.98-4.91715H45.47936v4.91715h-1.606V350.15468h3.22846a4.37325,4.37325,0,0,1,2.74834.79469A3.185,3.185,0,0,1,48.36,356.49568Zm-3.04632-9.70191a3.04673,3.04673,0,0,0-1.92045-.41389h-1.1755v3.87416h1.1755a3.15908,3.15908,0,0,0,1.92045-.39735,1.72712,1.72712,0,0,0,.72853-1.5397A1.69838,1.69838,0,0,0,48.57531,351.87651Z"
       transform="translate(0 0.00002)"
       style="fill:#f0f0f0;fill-opacity:1"
       id="path12" />
    <path
       d="M54.41922,361.57842H52.81317V350.15468h1.60605Z"
       transform="translate(0 0.00002)"
       style="fill:#f0f0f0;fill-opacity:1"
       id="path14" />
    <path
       d="M65.54207,360.08834A5.35543,5.35543,0,0,1,61.37,361.77709a5.89517,5.89517,0,1,1,4.05617-10.28133l-.67878,1.29135a4.52732,4.52732,0,0,0-3.31122-1.39071,4.45825,4.45825,0,0,0,0,8.90722,4.52188,4.52188,0,0,0,3.41059-1.39071Z"
       transform="translate(0 0.00002)"
       style="fill: #ed3224"
       id="path16" />
    <path
       d="M75.45235,361.57842H73.4987L69.70743,355.85l-1.1755,1.192v4.5364H66.92588V350.15468h1.60605v4.86753l4.65225-4.86753h1.95353l-4.35415,4.50326Z"
       transform="translate(0 0.00002)"
       style="fill: #ed3224"
       id="path18" />
    <path
       d="M75.45235,361.57842H73.4987L69.70743,355.85l-1.1755,1.192v4.5364H66.92588V357.019l1.60605.023,1.1755-1.192,1.07613-1.192.61637.91363.49748.7374Z"
       transform="translate(0 0.00002)"
       id="path20"
       style="fill:#f0f0f0;fill-opacity:1" />
  </g>
  <g
     id="g38">
    <path
       d="M21.7832,28.02637a4.80688,4.80688,0,0,1-3.13281.81006h-4.0332V16.4126h3.34863a5.36782,5.36782,0,0,1,2.95313.59424,2.7649,2.7649,0,0,1,1.332,2.521,2.83107,2.83107,0,0,1-1.89014,2.71875v.03613a3.03648,3.03648,0,0,1,2.75439,3.02441A3.2422,3.2422,0,0,1,21.7832,28.02637Zm-2.10693-9.88525a3.19833,3.19833,0,0,0-1.71045-.3418H16.36328v3.94287h1.4585a3.06939,3.06939,0,0,0,1.85449-.37793,1.85092,1.85092,0,0,0,.82861-1.63867A1.65558,1.65558,0,0,0,19.67627,18.14111Zm.73828,5.38379a3.81152,3.81152,0,0,0-2.17871-.4502H16.36328v4.33936h1.87256a3.80546,3.80546,0,0,0,2.17871-.43213,1.92736,1.92736,0,0,0,.90039-1.74658A1.86848,1.86848,0,0,0,20.41455,23.5249Z"
       transform="translate(0 0.00002)"
       id="path24" />
    <path
       d="M28.96387,29.03467a4.45726,4.45726,0,1,1,0-8.91309,4.457,4.457,0,1,1,0,8.91309Zm0-7.5083a2.78246,2.78246,0,0,0-2.79053,3.00684,2.79151,2.79151,0,1,0,5.56348,0A2.77929,2.77929,0,0,0,28.96387,21.52637Z"
       transform="translate(0 0.00002)"
       id="path26" />
    <path
       d="M39.2417,29.03467a4.457,4.457,0,1,1,4.51953-4.44727A4.336,4.336,0,0,1,39.2417,29.03467Zm0-7.5083a2.78246,2.78246,0,0,0-2.79053,3.00684,2.79151,2.79151,0,1,0,5.56348,0A2.77929,2.77929,0,0,0,39.2417,21.52637Z"
       transform="translate(0 0.00002)"
       id="path28" />
    <path
       d="M47.35938,28.83643H45.64844V16.4126h1.71094Z"
       transform="translate(0 0.00002)"
       id="path30" />
    <path
       d="M57.584,24.96533H50.99414A2.63713,2.63713,0,0,0,53.749,27.68408a4.73357,4.73357,0,0,0,2.82715-.99023l.71973.99023a5.02142,5.02142,0,0,1-3.7627,1.35059,4.147,4.147,0,0,1-4.28516-4.4834,4.24249,4.24249,0,0,1,4.33887-4.42969,3.90514,3.90514,0,0,1,4.05176,4.0874A7.36492,7.36492,0,0,1,57.584,24.96533ZM56,23.813a2.47133,2.47133,0,0,0-2.4668-2.44873A2.51551,2.51551,0,0,0,51.0127,23.813Z"
       transform="translate(0 0.00002)"
       id="path32" />
    <path
       d="M65.98926,28.83643H64.31543l-.01855-1.08008a3.52814,3.52814,0,0,1-2.71875,1.27832,2.71761,2.71761,0,0,1-2.95312-2.647c0-1.67432,1.36914-2.521,3.34961-2.61084l2.28613-.08984v-.34229a1.87628,1.87628,0,0,0-2.124-1.94434,5.2599,5.2599,0,0,0-2.5752.73779l-.52246-1.15234a6.59391,6.59391,0,0,1,3.20508-.86426,3.70744,3.70744,0,0,1,2.82715.97266,3.5417,3.5417,0,0,1,.918,2.77246Zm-1.71-4.10547-1.999.12646c-1.38574.07178-1.94434.666-1.94434,1.47607,0,.81055.62988,1.47656,1.76465,1.47656a2.68647,2.68647,0,0,0,2.17871-1.24219Z"
       transform="translate(0 0.00002)"
       id="path34" />
    <path
       d="M75.6377,28.83643H73.90918V24.06494c0-1.44043-.25293-2.52051-1.7832-2.52051-1.60254,0-2.19629,1.3501-2.19629,2.98877v4.30322H68.20117V20.28369h1.72852l-.01855,1.35059h.05469a2.8889,2.8889,0,0,1,2.61035-1.5127c2.43066,0,3.06152,1.60254,3.06152,3.65527Z"
       transform="translate(0 0.00002)"
       id="path36" />
  </g>
  <g
     id="g46"
     transform="translate(0.99958,0.99998999)">
    <path
       d="m 14.38086,140.00049 h -1.16309 v -8.27539 h 1.16309 z"
       transform="translate(0,2e-5)"
       id="path40" />
    <path
       d="m 21.03857,140.00049 h -1.15136 v -3.17822 c 0,-0.95947 -0.16748,-1.6792 -1.187,-1.6792 -1.06738,0 -1.46338,0.89941 -1.46338,1.99121 v 2.86621 h -1.15138 v -5.69678 h 1.15137 l -0.01172,0.89941 h 0.03564 A 1.92488,1.92488 0 0 1 19,134.1958 c 1.61914,0 2.03857,1.06738 2.03857,2.43457 z"
       transform="translate(0,2e-5)"
       id="path42" />
    <path
       d="m 31.958,140.00049 h -1.2959 l -0.85156,-2.15869 h -3.5498 l -0.85156,2.15869 H 24.186 l 3.36963,-8.29932 h 1.01957 z m -2.4707,-3.13037 -1.45117,-3.71777 -1.45166,3.71777 z"
       transform="translate(0,2e-5)"
       id="path44" />
  </g>
  <g
     id="g54"
     transform="translate(1.2263762,0.99998999)">
    <path
       d="m 14.75928,231.333 h -1.16309 v -8.27539 h 1.16309 z"
       transform="translate(0,2e-5)"
       id="path48" />
    <path
       d="m 21.417,231.333 h -1.15137 v -3.1787 c 0,-0.959 -0.16748,-1.67871 -1.187,-1.67871 -1.06738,0 -1.46338,0.89941 -1.46338,1.99121 v 2.8662 h -1.15138 v -5.69727 h 1.15137 l -0.01172,0.89941 h 0.03564 a 1.92452,1.92452 0 0 1 1.73926,-1.00684 c 1.61914,0 2.03857,1.06738 2.03857,2.43457 z"
       transform="translate(0,2e-5)"
       id="path50" />
    <path
       d="m 30.2373,230.793 a 3.19835,3.19835 0 0 1 -2.08691,0.54 h -2.68652 v -8.27539 h 2.23047 a 3.57222,3.57222 0 0 1 1.9668,0.39551 1.84083,1.84083 0 0 1 0.8877,1.67871 1.88587,1.88587 0 0 1 -1.25884,1.81153 v 0.0234 a 2.024,2.024 0 0 1 1.835,2.01563 2.15813,2.15813 0 0 1 -0.8877,1.81057 z m -1.4033,-6.584 a 2.12984,2.12984 0 0 0 -1.13965,-0.22852 H 26.627 v 2.627 h 0.97168 a 2.04528,2.04528 0 0 0 1.23535,-0.252 1.23535,1.23535 0 0 0 0.55176,-1.0918 A 1.101,1.101 0 0 0 28.834,224.209 Z m 0.49121,3.58594 a 2.53279,2.53279 0 0 0 -1.45117,-0.2998 H 26.627 v 2.89063 h 1.247 a 2.53676,2.53676 0 0 0 1.45117,-0.28809 1.285,1.285 0 0 0 0.60059,-1.16406 1.24364,1.24364 0 0 0 -0.60056,-1.1387 z"
       transform="translate(0,2e-5)"
       id="path52" />
  </g>
  <rect
     x="40.896698"
     y="51.718769"
     width="43.726753"
     height="278.78467"
     rx="8.5026598"
     ry="8.1511631"
     id="rect58"
     style="stroke-width:1.04063" />
  <g
     id="g66"
     style="fill:#f0f0f0;fill-opacity:1"
     transform="translate(-6.78259,0.99998999)">
    <path
       d="M 59.83105,186 H 58.42773 L 56.3291,182.48584 54.24219,186 h -1.3916 l 2.73438,-4.26953 -2.543,-4.00586 h 1.36816 l 1.91895,3.22607 1.93066,-3.22607 H 59.627 l -2.543,4.00586 z"
       transform="translate(0,2e-5)"
       style="fill:#f0f0f0;fill-opacity:1"
       id="path60" />
    <path
       d="m 64.04395,186.144 a 4.26978,4.26978 0 1 1 4.26953,-4.26953 4.11083,4.11083 0 0 1 -4.26953,4.26953 z m 0,-7.53223 a 3.24224,3.24224 0 1 0 3.082,3.23828 3.02827,3.02827 0 0 0 -3.082,-3.23823 z"
       transform="translate(0,2e-5)"
       style="fill:#f0f0f0;fill-opacity:1"
       id="path62" />
    <path
       d="m 75.28711,186 h -1.40332 l -2.15918,-3.562 H 70.83789 V 186 h -1.16406 v -8.27539 h 2.33887 a 3.16856,3.16856 0 0 1 1.99121,0.57568 2.307,2.307 0 0 1 -1.0791,4.01758 z m -2.207,-7.02832 a 2.20456,2.20456 0 0 0 -1.39062,-0.2998 h -0.85156 v 2.80664 h 0.85156 a 2.284,2.284 0 0 0 1.39063,-0.28809 1.25051,1.25051 0 0 0 0.52832,-1.11523 1.23067,1.23067 0 0 0 -0.52836,-1.10352 z"
       transform="translate(0,2e-5)"
       style="fill:#f0f0f0;fill-opacity:1"
       id="path64" />
  </g>
  <g
     id="g76"
     style="fill:#f0f0f0;fill-opacity:1"
     transform="translate(-3.1029,0.99998999)">
    <path
       d="M 55.15137,321.333 H 53.748 l -2.09863,-3.51367 -2.08687,3.51367 h -1.3916 l 2.73438,-4.26953 -2.543,-4.00586 h 1.36816 l 1.91895,3.22656 1.93066,-3.22656 h 1.36719 l -2.543,4.00586 z"
       transform="translate(0,2e-5)"
       style="fill:#f0f0f0;fill-opacity:1"
       id="path68" />
    <path
       d="m 63.082,321.333 h -1.13962 l -4.77246,-6.5957 c 0,0 0.02344,1.11523 0.02344,2.19434 V 321.333 H 56.042 v -8.27539 h 1.22363 l 4.68945,6.501 c 0,0 -0.0127,-1.01953 -0.0127,-2.11133 v -4.38965 H 63.082 Z"
       transform="translate(0,2e-5)"
       style="fill:#f0f0f0;fill-opacity:1"
       id="path70" />
    <path
       d="m 68.72363,321.47754 a 4.27,4.27 0 1 1 4.26953,-4.26953 4.11137,4.11137 0 0 1 -4.26953,4.26953 z m 0,-7.53223 a 3.24224,3.24224 0 1 0 3.082,3.23828 3.02778,3.02778 0 0 0 -3.082,-3.23828 z"
       transform="translate(0,2e-5)"
       style="fill:#f0f0f0;fill-opacity:1"
       id="path72" />
    <path
       d="m 79.9668,321.333 h -1.40332 l -2.15918,-3.56152 h -0.88672 v 3.56152 h -1.16406 v -8.27539 h 2.33887 a 3.16867,3.16867 0 0 1 1.99121,0.57617 2.307,2.307 0 0 1 -1.0791,4.01758 z m -2.207,-7.02832 a 2.20773,2.20773 0 0 0 -1.39062,-0.2998 h -0.85156 v 2.80664 h 0.85156 a 2.28051,2.28051 0 0 0 1.39063,-0.28809 1.25,1.25 0 0 0 0.52832,-1.11523 1.23174,1.23174 0 0 0 -0.52836,-1.10351 z"
       transform="translate(0,2e-5)"
       style="fill:#f0f0f0;fill-opacity:1"
       id="path74" />
  </g>
  <g
     id="g86"
     style="fill:#f0f0f0;fill-opacity:1"
     transform="translate(-3.00036,0.99998999)">
    <path
       d="m 55.1084,276 h -1.13965 l -4.77344,-6.59668 c 0,0 0.02441,1.11523 0.02441,2.19531 V 276 h -1.15136 v -8.27539 H 49.291 l 4.68945,6.5 c 0,0 -0.01172,-1.01953 -0.01172,-2.11035 v -4.38965 h 1.13967 z"
       transform="translate(0,2e-5)"
       style="fill:#f0f0f0;fill-opacity:1"
       id="path78" />
    <path
       d="m 63.82031,276 h -1.2959 l -0.85156,-2.15918 H 58.123 L 57.27148,276 h -1.22265 l 3.37012,-8.2998 h 1.01855 z m -2.4707,-3.13086 -1.45117,-3.71777 -1.45117,3.71777 z"
       transform="translate(0,2e-5)"
       style="fill:#f0f0f0;fill-opacity:1"
       id="path80" />
    <path
       d="M 71.78711,276 H 70.64844 L 65.875,269.40332 c 0,0 0.02441,1.11523 0.02441,2.19531 V 276 H 64.748 v -8.27539 h 1.2227 l 4.68945,6.5 c 0,0 -0.01172,-1.01953 -0.01172,-2.11035 v -4.38965 h 1.13867 z"
       transform="translate(0,2e-5)"
       style="fill:#f0f0f0;fill-opacity:1"
       id="path82" />
    <path
       d="M 79.21582,274.91992 A 4.55435,4.55435 0 0 1 76.12207,276 H 73.627 v -8.27539 h 2.49512 a 4.55433,4.55433 0 0 1 3.09375,1.0791 4.28333,4.28333 0 0 1 0,6.11621 z M 78.3291,269.4873 a 3.16,3.16 0 0 0 -2.207,-0.76758 H 74.791 v 6.27246 h 1.33105 a 3.16,3.16 0 0 0 2.207,-0.76758 3.11778,3.11778 0 0 0 0.9834,-2.3623 3.14948,3.14948 0 0 0 -0.98335,-2.375 z"
       transform="translate(0,2e-5)"
       style="fill:#f0f0f0;fill-opacity:1"
       id="path84" />
  </g>
  <g
     id="g94"
     style="fill:#f0f0f0;fill-opacity:1"
     transform="translate(-7.50036,0.99998999)">
    <path
       d="m 59.6084,231.333 h -1.13965 l -4.77344,-6.5957 c 0,0 0.02441,1.11523 0.02441,2.19434 v 4.40136 h -1.15136 v -8.27539 H 53.791 l 4.68945,6.501 c 0,0 -0.01172,-1.01953 -0.01172,-2.11133 v -4.38965 h 1.13967 z"
       transform="translate(0,2e-5)"
       style="fill:#f0f0f0;fill-opacity:1"
       id="path88" />
    <path
       d="m 65.25,231.47754 a 4.27,4.27 0 1 1 4.26953,-4.26953 4.11083,4.11083 0 0 1 -4.26953,4.26953 z m 0,-7.53223 a 3.24224,3.24224 0 1 0 3.082,3.23828 3.028,3.028 0 0 0 -3.082,-3.23828 z"
       transform="translate(0,2e-5)"
       style="fill:#f0f0f0;fill-opacity:1"
       id="path90" />
    <path
       d="m 76.49219,231.333 h -1.40332 l -2.15918,-3.56152 H 72.043 v 3.56152 h -1.16409 v -8.27539 h 2.33887 a 3.16867,3.16867 0 0 1 1.99121,0.57617 2.307,2.307 0 0 1 -1.0791,4.01758 z m -2.207,-7.02832 a 2.20773,2.20773 0 0 0 -1.39062,-0.2998 H 72.043 v 2.80664 h 0.85156 a 2.28051,2.28051 0 0 0 1.39063,-0.28809 1.25,1.25 0 0 0 0.52832,-1.11523 1.23174,1.23174 0 0 0 -0.52835,-1.10351 z"
       transform="translate(0,2e-5)"
       style="fill:#f0f0f0;fill-opacity:1"
       id="path92" />
  </g>
  <g
     id="g100"
     style="fill:#f0f0f0;fill-opacity:1"
     transform="translate(-7.009875,0.99998999)">
    <path
       d="M 60.80957,94.81055 A 4.26978,4.26978 0 1 1 65.0791,90.541 4.11137,4.11137 0 0 1 60.80957,94.81055 Z m 0,-7.53223 a 3.24219,3.24219 0 1 0 3.083,3.23828 3.02806,3.02806 0 0 0 -3.083,-3.23828 z"
       transform="translate(0,2e-5)"
       style="fill:#f0f0f0;fill-opacity:1"
       id="path96" />
    <path
       d="m 72.05273,94.6665 h -1.40332 l -2.1582,-3.562 h -0.8877 v 3.562 h -1.16308 v -8.27539 h 2.33789 a 3.16856,3.16856 0 0 1 1.99121,0.57568 2.307,2.307 0 0 1 -1.0791,4.01758 z m -2.207,-7.02832 a 2.20456,2.20456 0 0 0 -1.39062,-0.2998 H 67.60355 V 90.145 h 0.85156 A 2.284,2.284 0 0 0 69.84574,89.85691 1.25051,1.25051 0 0 0 70.374,88.7417 1.23067,1.23067 0 0 0 69.8457,87.63818 Z"
       transform="translate(0,2e-5)"
       style="fill:#f0f0f0;fill-opacity:1"
       id="path98" />
  </g>
  <g
     id="g108"
     style="fill:#f0f0f0;fill-opacity:1"
     transform="translate(-6.5404,0.99998999)">
    <path
       d="M 59.37988,140 H 58.085 l -0.85156,-2.15869 h -3.5498 L 52.832,140 h -1.2236 l 3.37012,-8.29932 H 55.998 Z m -2.4707,-3.13037 -1.45118,-3.71777 -1.45117,3.71777 z"
       transform="translate(0,2e-5)"
       style="fill:#f0f0f0;fill-opacity:1"
       id="path102" />
    <path
       d="M 67.34766,140 H 66.208 l -4.77246,-6.59619 c 0,0 0.02344,1.11523 0.02344,2.19482 V 140 h -1.15136 v -8.27539 h 1.22363 l 4.68945,6.50049 c 0,0 -0.0127,-1.01953 -0.0127,-2.11084 v -4.38965 h 1.13965 z"
       transform="translate(0,2e-5)"
       style="fill:#f0f0f0;fill-opacity:1"
       id="path104" />
    <path
       d="M 74.77637,138.92041 A 4.55716,4.55716 0 0 1 71.68164,140 H 69.1875 v -8.27539 h 2.49414 a 4.55716,4.55716 0 0 1 3.09473,1.07959 4.28561,4.28561 0 0 1 0,6.11621 z m -0.8877,-5.43262 a 3.156,3.156 0 0 0 -2.207,-0.76758 h -1.33108 v 6.27246 h 1.33105 a 3.15824,3.15824 0 0 0 2.207,-0.76758 3.3443,3.3443 0 0 0 0,-4.7373 z"
       transform="translate(0,2e-5)"
       style="fill:#f0f0f0;fill-opacity:1"
       id="path106" />
  </g>
  <g
     id="g116"
     transform="translate(1.13092,0.99998999)">
    <path
       d="m 14.2915,321.333 h -1.16308 v -8.27539 h 1.16308 z"
       transform="translate(0,2e-5)"
       id="path110" />
    <path
       d="m 20.94922,321.333 h -1.15137 v -3.17773 c 0,-0.96 -0.16748,-1.67969 -1.187,-1.67969 -1.06738,0 -1.46338,0.89941 -1.46338,1.99121 v 2.86621 h -1.15138 v -5.69629 h 1.15137 l -0.01172,0.89941 h 0.03564 a 1.92525,1.92525 0 0 1 1.73926,-1.00781 c 1.61914,0 2.03857,1.06738 2.03857,2.43457 z"
       transform="translate(0,2e-5)"
       id="path112" />
    <path
       d="m 31.78467,320.25391 a 3.88286,3.88286 0 0 1 -3.02246,1.22363 4.27017,4.27017 0 0 1 0,-8.54 4.102,4.102 0 0 1 2.93848,1.0918 l -0.49219,0.93555 a 3.27813,3.27813 0 0 0 -2.39844,-1.00781 3.22993,3.22993 0 0 0 0,6.45313 3.27668,3.27668 0 0 0 2.4707,-1.00781 z"
       transform="translate(0,2e-5)"
       id="path114" />
  </g>
</svg>
