<?xml version="1.0" encoding="UTF-8" standalone="no"?>
<svg
   xmlns:dc="http://purl.org/dc/elements/1.1/"
   xmlns:cc="http://creativecommons.org/ns#"
   xmlns:rdf="http://www.w3.org/1999/02/22-rdf-syntax-ns#"
   xmlns:svg="http://www.w3.org/2000/svg"
   xmlns="http://www.w3.org/2000/svg"
   xmlns:sodipodi="http://sodipodi.sourceforge.net/DTD/sodipodi-0.dtd"
   xmlns:inkscape="http://www.inkscape.org/namespaces/inkscape"
   id="svg8"
   width="89.99999"
   height="380.00004"
   viewBox="0 0 89.99999 380.00004"
   version="1.1"
   sodipodi:docname="Comparator.svg"
   inkscape:version="1.0.1 (3bc2e813f5, 2020-09-07)">
  <metadata
     id="metadata163">
    <rdf:RDF>
      <cc:Work
         rdf:about="">
        <dc:format>image/svg+xml</dc:format>
        <dc:type
           rdf:resource="http://purl.org/dc/dcmitype/StillImage" />
      </cc:Work>
    </rdf:RDF>
  </metadata>
  <defs
     id="defs161" />
  <sodipodi:namedview
     pagecolor="#ffffff"
     bordercolor="#666666"
     borderopacity="1"
     objecttolerance="10"
     gridtolerance="10"
     guidetolerance="10"
     inkscape:pageopacity="0"
     inkscape:pageshadow="2"
     inkscape:window-width="640"
     inkscape:window-height="480"
     id="namedview159"
     showgrid="false"
     inkscape:zoom="1.9342104"
     inkscape:cx="44.999996"
     inkscape:cy="190.00002"
     inkscape:current-layer="g22"
     inkscape:document-rotation="0" />
  <title
     id="title2">Comparator</title>
  <g
     id="layer1">
    <path
       id="rect817"
       d="M0,0H90V380H0Z"
       transform="translate(0 0.00002)"
       style="fill: #f0f0f0" />
  </g>
  <g
     id="g22">
    <path
       d="M25.78415,361.57842H24.17823v-5.3311H18.10212v5.3311H16.49619V350.15468h1.60593v4.71853h6.07611v-4.71853h1.60592Z"
       transform="translate(0 0.00002)"
       style="fill:#000000"
       id="path6" />
    <path
       d="M33.99163,361.57842H27.17051V350.15468h6.68867v1.34109H28.77644v3.41052h4.8013v1.341h-4.8013v3.97347h5.21519Z"
       transform="translate(0 0.00002)"
       style="fill:#000000"
       id="path8" />
    <path
       d="M42.86514,351.49577H39.65329v10.08265h-1.606V351.49577H34.81891v-1.34109h8.04623Z"
       transform="translate(0 0.00002)"
       style="fill:#000000"
       id="path10" />
    <path
       d="M51.62163,361.57842H49.68452l-2.98-4.91715H45.47936v4.91715h-1.606V350.15468h3.22846a4.37321,4.37321,0,0,1,2.74834.79469A3.185,3.185,0,0,1,48.36,356.49568Zm-3.04632-9.70191a3.04678,3.04678,0,0,0-1.92045-.41389h-1.1755v3.87416h1.1755a3.15913,3.15913,0,0,0,1.92045-.39734,1.72715,1.72715,0,0,0,.72853-1.53971A1.69839,1.69839,0,0,0,48.57531,351.87651Z"
       transform="translate(0 0.00002)"
       style="fill:#000000"
       id="path12" />
    <path
       d="M54.41922,361.57842H52.81317V350.15468h1.60605Z"
       transform="translate(0 0.00002)"
       style="fill:#000000"
       id="path14" />
    <path
       d="M65.54207,360.08834A5.35546,5.35546,0,0,1,61.37,361.77709a5.89516,5.89516,0,1,1,4.05617-10.28132l-.67879,1.29134a4.52731,4.52731,0,0,0-3.31122-1.39071,4.45825,4.45825,0,0,0,0,8.90722,4.52185,4.52185,0,0,0,3.41059-1.39072Z"
       transform="translate(0 0.00002)"
       style="fill: #ed3224"
       id="path16" />
    <path
       d="M75.45235,361.57842H73.4987L69.70743,355.85l-1.1755,1.192v4.5364h-1.606V350.15468h1.606v4.86752l4.65225-4.86752h1.95353l-4.35415,4.50326Z"
       transform="translate(0 0.00002)"
       style="fill: #ed3224"
       id="path18" />
    <path
       d="M75.45235,361.57842H73.4987L69.70743,355.85l-1.1755,1.192v4.5364h-1.606v-4.55937l1.606.023,1.1755-1.192,1.07613-1.192.61637.91363.49747.7374Z"
       transform="translate(0 0.00002)"
       id="path20" />
  </g>
  <g
     id="g38">
    <path
       d="M20.749,27.21582a5.825,5.825,0,0,1-4.53759,1.83643,6.12089,6.12089,0,0,1-6.356-6.40967,6.15079,6.15079,0,0,1,6.356-6.40967,6.156,6.156,0,0,1,4.41162,1.63818l-.73828,1.4043a4.92533,4.92533,0,0,0-3.60108-1.51221,4.52144,4.52144,0,0,0-4.62744,4.84327,4.53144,4.53144,0,0,0,4.62744,4.84375,4.91746,4.91746,0,0,0,3.709-1.5127Z"
       transform="translate(0 0.00002)"
       id="path24" />
    <path
       d="M26.12891,29.03467a4.45726,4.45726,0,1,1,0-8.91309,4.457,4.457,0,1,1,0,8.91309Zm0-7.5083a2.78245,2.78245,0,0,0-2.79053,3.00683,2.79152,2.79152,0,1,0,5.56348,0A2.77929,2.77929,0,0,0,26.12891,21.52637Z"
       transform="translate(0 0.00002)"
       id="path26" />
    <path
       d="M44.8335,28.83643H43.12305V23.84912c0-.99023-.18018-2.30469-1.56641-2.30469-1.36865,0-2.05273,1.31446-2.05273,2.84473v4.44727H37.77539V23.84912c0-1.26074-.30615-2.30469-1.54883-2.30469-1.36816,0-2.05224,1.31446-2.05224,2.84473v4.44727H32.4458V20.28369h1.72852l-.01807,1.35059H34.21a2.82294,2.82294,0,0,1,2.4668-1.5127,2.46689,2.46689,0,0,1,2.53906,1.69287,2.96858,2.96858,0,0,1,2.71875-1.69287c2.28662,0,2.89893,1.67481,2.89893,3.5293Z"
       transform="translate(0 0.00002)"
       id="path28" />
    <path
       d="M51.90527,29.03467a3.32258,3.32258,0,0,1-2.95312-1.53076l-.01758-.01807v4.69971H47.20605V20.28369H48.8623v1.35059h.03614a3.625,3.625,0,0,1,3.043-1.5127c2.5205,0,4.123,1.89063,4.123,4.42969C56.06445,27.08984,54.44336,29.03467,51.90527,29.03467Zm-.32422-7.5083A2.71925,2.71925,0,0,0,48.8623,24.5332a2.73424,2.73424,0,1,0,5.4375,0A2.71978,2.71978,0,0,0,51.58105,21.52637Z"
       transform="translate(0 0.00002)"
       id="path30" />
    <path
       d="M64.50488,28.83643H62.83105l-.01855-1.08008a3.52815,3.52815,0,0,1-2.71875,1.27832,2.71762,2.71762,0,0,1-2.95313-2.647c0-1.67432,1.36915-2.521,3.34961-2.61084l2.28614-.08985v-.34228a1.87628,1.87628,0,0,0-2.124-1.94434,5.26,5.26,0,0,0-2.57519.73779l-.52246-1.15234a6.59394,6.59394,0,0,1,3.20508-.86426,3.70743,3.70743,0,0,1,2.82714.97266,3.54167,3.54167,0,0,1,.918,2.77246Zm-1.71-4.10547-1.999.12646c-1.38574.07178-1.94434.666-1.94434,1.47608,0,.81054.62989,1.47656,1.76465,1.47656a2.68647,2.68647,0,0,0,2.17871-1.24219Z"
       transform="translate(0 0.00002)"
       id="path32" />
    <path
       d="M71.37988,21.86816h-.07226a2.26334,2.26334,0,0,0-.93555-.17968,1.78861,1.78861,0,0,0-1.4043.72021,3.78778,3.78778,0,0,0-.52246,2.16065v4.26709H66.7168V20.28369h1.72851l-.01855,1.31445h.05469a2.23291,2.23291,0,0,1,2.10644-1.47656,2.39766,2.39766,0,0,1,.90039.14453Z"
       transform="translate(0 0.00002)"
       id="path34" />
    <path
       d="M80.23633,24.96533H73.64648a2.63714,2.63714,0,0,0,2.75489,2.71875,4.73365,4.73365,0,0,0,2.82715-.99023l.71972.99023a5.02137,5.02137,0,0,1-3.76269,1.35059,4.147,4.147,0,0,1-4.28516-4.4834,4.2425,4.2425,0,0,1,4.33887-4.42969A3.90514,3.90514,0,0,1,80.291,24.209,7.36463,7.36463,0,0,1,80.23633,24.96533Zm-1.584-1.15234a2.47132,2.47132,0,0,0-2.46679-2.44873A2.5155,2.5155,0,0,0,73.665,23.813Z"
       transform="translate(0 0.00002)"
       id="path36" />
  </g>
  <g
     id="g58"
     transform="translate(0,2.00037)">
    <path
       d="m 25.32324,171.02881 h -2.32666 v 7.3042 H 21.8335 v -7.3042 h -2.33887 v -0.97119 h 5.82861 z"
       transform="translate(0,2e-5)"
       id="path40" />
    <path
       d="m 31.22705,178.333 h -1.15137 v -3.22608 c 0,-0.81591 -0.13183,-1.63134 -1.17529,-1.63134 -1.04346,0 -1.4873,0.89941 -1.4873,2.03906 v 2.81836 h -1.13916 v -8.27539 h 1.13916 v 3.478 H 27.437 a 1.94534,1.94534 0 0 1 1.75147,-1.00732 c 1.64306,0 2.03857,1.05518 2.03857,2.41064 z"
       transform="translate(0,2e-5)"
       id="path42" />
    <path
       d="m 35.896,173.69141 h -0.04786 a 1.51442,1.51442 0 0 0 -0.624,-0.11963 1.19475,1.19475 0 0 0 -0.93555,0.47949 2.52693,2.52693 0 0 0 -0.34765,1.43945 v 2.84228 h -1.15139 v -5.69678 h 1.15137 l -0.01172,0.87549 h 0.03564 a 1.48668,1.48668 0 0 1 1.40332,-0.9834 1.60415,1.60415 0 0 1 0.59961,0.0957 z"
       transform="translate(0,2e-5)"
       id="path44" />
    <path
       d="m 41.79883,175.75439 h -4.38965 a 1.75632,1.75632 0 0 0 1.835,1.811 3.15037,3.15037 0 0 0 1.88281,-0.65967 l 0.48,0.65967 a 3.34735,3.34735 0 0 1 -2.50683,0.89941 2.76251,2.76251 0 0 1 -2.85449,-2.98632 2.82573,2.82573 0 0 1 2.89062,-2.9502 2.60065,2.60065 0 0 1 2.69824,2.72217 5.00527,5.00527 0 0 1 -0.0357,0.50394 z m -1.05567,-0.76757 a 1.64611,1.64611 0 0 0 -1.64306,-1.63082 1.67631,1.67631 0 0 0 -1.6792,1.63086 z"
       transform="translate(0,2e-5)"
       id="path46" />
    <path
       d="m 46.22754,177.96143 a 2.43164,2.43164 0 0 1 -1.5835,0.50341 2.72753,2.72753 0 0 1 -2.21875,-1.01953 l 0.55176,-0.67138 a 2.33746,2.33746 0 0 0 1.6792,0.81543 c 0.52783,0 1.09131,-0.1919 1.09131,-0.81543 0,-0.62353 -0.89942,-0.81543 -1.2832,-0.94776 a 4.25311,4.25311 0 0 1 -0.77979,-0.2998 1.46792,1.46792 0 0 1 -0.89941,-1.36719 1.724,1.724 0 0 1 1.91894,-1.63086 2.49086,2.49086 0 0 1 1.94238,0.74365 l -0.47949,0.70752 a 2.08642,2.08642 0 0 0 -1.439,-0.61181 c -0.55176,0 -0.91114,0.23974 -0.91114,0.70752 0,0.46778 0.55127,0.67187 1.11524,0.85156 0.31152,0.10791 0.52783,0.18017 0.76758,0.27588 a 2.187,2.187 0 0 1 0.65967,0.40771 1.40893,1.40893 0 0 1 0.45507,1.05567 1.62322,1.62322 0 0 1 -0.58687,1.29541 z"
       transform="translate(0,2e-5)"
       id="path48" />
    <path
       d="m 52.958,178.333 h -1.15136 v -3.22608 c 0,-0.81591 -0.13184,-1.63134 -1.17578,-1.63134 -1.043,0 -1.48731,0.89941 -1.48731,2.03906 v 2.81836 h -1.13867 v -8.27539 h 1.13867 v 3.478 H 49.168 a 1.9434,1.9434 0 0 1 1.751,-1.00732 c 1.64257,0 2.03906,1.05518 2.03906,2.41064 z"
       transform="translate(0,2e-5)"
       id="path50" />
    <path
       d="m 57.15918,178.46484 a 2.96856,2.96856 0 1 1 3.01074,-2.9624 2.88788,2.88788 0 0 1 -3.01074,2.9624 z m 0,-5.001 a 2.01582,2.01582 0 1 0 1.84766,2.00293 1.85292,1.85292 0 0 0 -1.84766,-2.0029 z"
       transform="translate(0,2e-5)"
       id="path52" />
    <path
       d="m 62.57227,178.333 h -1.13965 v -8.27539 h 1.13965 z"
       transform="translate(0,2e-5)"
       id="path54" />
    <path
       d="m 69.7334,178.333 h -1.10352 v -0.91162 h -0.02441 a 2.315,2.315 0 0 1 -2.00195,1.04345 2.762,2.762 0 0 1 -2.77051,-2.98632 2.73312,2.73312 0 0 1 2.74609,-2.9502 2.30323,2.30323 0 0 1 1.99121,0.99512 h 0.02344 v -3.46582 h 1.13965 z m -2.91406,-4.86914 a 2.01964,2.01964 0 1 0 1.81054,2.00293 1.81162,1.81162 0 0 0 -1.81054,-2.00292 z"
       transform="translate(0,2e-5)"
       id="path56" />
  </g>
  <g
     id="g70">
    <path
       d="M33.67725,229.56543H32.51416V221.29h1.16309Z"
       transform="translate(0 0.00002)"
       id="path60" />
    <path
       d="M40.335,229.56543H39.18359V226.3877c0-.96-.16748-1.67969-1.187-1.67969-1.06738,0-1.46338.89941-1.46338,1.99121v2.86621H35.38184v-5.69629H36.5332l-.01172.89941h.03565a1.92526,1.92526,0,0,1,1.73926-1.00781c1.61914,0,2.03857,1.06738,2.03857,2.43457Z"
       transform="translate(0 0.00002)"
       id="path62" />
    <path
       d="M45.05176,229.69727a2.21293,2.21293,0,0,1-1.9668-1.01954l-.01221-.01171v3.13086H41.92139v-7.92774H43.0249v.89941h.02393a2.41515,2.41515,0,0,1,2.02685-1.00781,2.72066,2.72066,0,0,1,2.74659,2.9502A2.76235,2.76235,0,0,1,45.05176,229.69727Zm-.21582-5.001a2.01964,2.01964,0,1,0,1.81054,2.00293A1.81153,1.81153,0,0,0,44.83594,224.69629Z"
       transform="translate(0 0.00002)"
       id="path64" />
    <path
       d="M53.87012,229.56543H52.75488l-.01172-.81543a1.98741,1.98741,0,0,1-1.76367.94727,1.84174,1.84174,0,0,1-1.582-.65918,2.891,2.891,0,0,1-.41992-1.7627v-3.41894h1.13867v3.37011c0,.78028.168,1.51172,1.1875,1.51172,1.00781,0,1.415-.86328,1.415-1.82324v-3.05859h1.15137Z"
       transform="translate(0 0.00002)"
       id="path66" />
    <path
       d="M58.22754,229.50586a2.898,2.898,0,0,1-1.04395.19141,1.33666,1.33666,0,0,1-1.21093-.58692,2.97184,2.97184,0,0,1-.28809-1.70312v-2.60254h-.83984v-.92383h.83984v-1.70313h1.15137v1.70313h1.36718v.92383H56.83594v2.57812a2.24512,2.24512,0,0,0,.14355,1.04395.59688.59688,0,0,0,.58789.28711,1.39113,1.39113,0,0,0,.58789-.13184Z"
       transform="translate(0 0.00002)"
       id="path68" />
  </g>
  <rect
     x="4.9270782"
     y="238.51044"
     width="80.630211"
     height="103.59115"
     rx="8"
     ry="8"
     id="rect72" />
  <rect
     x="37.500751"
     y="144.93335"
     width="14.9985"
     height="13.73334"
     style="fill:none"
     id="rect74" />
  <rect
     x="37.500751"
     y="131.20003"
     width="14.9985"
     height="13.73334"
     style="fill:none"
     id="rect84" />
  <rect
     x="37.500751"
     y="117.46669"
     width="14.9985"
     height="13.73332"
     style="fill:none"
     id="rect94" />
  <rect
     x="37.500751"
     y="103.73336"
     width="14.9985"
     height="13.73334"
     style="fill:none"
     id="rect104" />
  <rect
     x="37.500751"
     y="90.000023"
     width="14.9985"
     height="13.73334"
     style="fill:none"
     id="rect114" />
  <g
     id="g968">
    <rect
       x="44.469452"
       y="145.948"
       width="1.5"
       height="2.5491199"
       style="fill:#000000"
       id="rect76" />
    <rect
       x="44.469452"
       y="150.52"
       width="1.5"
       height="2.5491199"
       style="fill:#000000"
       id="rect78" />
    <rect
       x="44.469452"
       y="155.07703"
       width="1.5"
       height="2.5491199"
       style="fill:#000000"
       id="rect80" />
    <rect
       x="44.469452"
       y="132.21468"
       width="1.5"
       height="2.54913"
       style="fill:#000000"
       id="rect86" />
    <rect
       x="44.469452"
       y="136.78667"
       width="1.5"
       height="2.5491199"
       style="fill:#000000"
       id="rect88" />
    <rect
       x="44.469452"
       y="141.34367"
       width="1.5"
       height="2.5491199"
       style="fill:#000000"
       id="rect90" />
    <rect
       x="44.469452"
       y="118.48134"
       width="1.5"
       height="2.5490999"
       style="fill:#000000"
       id="rect96" />
    <rect
       x="44.469452"
       y="123.05333"
       width="1.5"
       height="2.5491199"
       style="fill:#000000"
       id="rect98" />
    <rect
       x="44.469452"
       y="127.61036"
       width="1.5"
       height="2.5491199"
       style="fill:#000000"
       id="rect100" />
    <rect
       x="44.469452"
       y="104.74801"
       width="1.5"
       height="2.54913"
       style="fill:#000000"
       id="rect106" />
    <rect
       x="44.469452"
       y="109.32"
       width="1.5"
       height="2.54913"
       style="fill:#000000"
       id="rect108" />
    <rect
       x="44.469452"
       y="113.877"
       width="1.5"
       height="2.54913"
       style="fill:#000000"
       id="rect110" />
    <rect
       x="44.469452"
       y="91.014671"
       width="1.5"
       height="2.54913"
       style="fill:#000000"
       id="rect116" />
    <rect
       x="44.469452"
       y="95.586662"
       width="1.5"
       height="2.54913"
       style="fill:#000000"
       id="rect118" />
    <rect
       x="44.469452"
       y="100.1437"
       width="1.5"
       height="2.5490999"
       style="fill:#000000"
       id="rect120" />
  </g>
  <g
     id="g130">
    <path
       d="M39.75244,133.12988H37.81738v-.63965h1.93506Z"
       transform="translate(0 0.00002)"
       id="path126" />
    <path
       d="M54.375,132.5376H52.584v1.791h-.59179v-1.791H50.19336v-.5918h1.79883v-1.791H52.584v1.791h1.791Z"
       transform="translate(0 0.00002)"
       id="path128" />
  </g>
  <g
     id="g136"
     style="fill:#f0f0f0;fill-opacity:1">
    <path
       d="M28.40283,270.707l-6.27246-2.68652v-.9834l6.27246-2.68652v.9707l-5.15722,2.207,5.15722,2.207Z"
       transform="translate(0 0.00002)"
       style="fill:#f0f0f0;fill-opacity:1"
       id="path132" />
    <path
       d="M68.42285,268.02051,62.15039,270.707v-.97168l5.15723-2.207-5.15723-2.207v-.9707l6.27246,2.68652Z"
       transform="translate(0 0.00002)"
       style="fill:#f0f0f0;fill-opacity:1"
       id="path134" />
  </g>
  <path
     d="M48.93945,299.28027a4.50744,4.50744,0,0,1-3.51367,1.34278,4.26988,4.26988,0,0,1-.01221-8.53907,4.15806,4.15806,0,0,1,3.3462,1.43946l-.791.73144a3.18648,3.18648,0,0,0-2.55518-1.17578,2.98182,2.98182,0,0,0-3.01025,3.2627,3.02176,3.02176,0,0,0,3.08252,3.26172,2.98715,2.98715,0,0,0,2.32666-.75489v-1.835h-2.231v-.94824h3.35791Z"
     transform="translate(0 0.00002)"
     style="fill:#f0f0f0;fill-opacity:1"
     id="path138" />
  <path
     d="M48.38672,323.57129H46.05957V330.875H44.89648v-7.30371H42.55762v-.97168h5.8291Z"
     transform="translate(0 0.00002)"
     style="fill:#f0f0f0;fill-opacity:1"
     id="path140" />
  <g
     id="g146">
    <path
       d="M17.37549,81.85986H14.47314v-.95947h2.90235Z"
       transform="translate(0 0.00002)"
       id="path142" />
    <path
       d="M74.95508,80.97266H72.26855v2.68652h-.88671V80.97266H68.68262V80.085h2.69922V77.39844h.88671V80.085h2.68653Z"
       transform="translate(0 0.00002)"
       id="path144" />
  </g>
  <path
     d="M44.999,56.08789c-1.4873,0-2.11084-1.40723-2.11084-2.83838,0-1.439.63135-2.84619,2.11084-2.84619,1.48731,0,2.11036,1.40723,2.11036,2.84619C47.10938,54.68066,46.48633,56.08789,44.999,56.08789Zm0-5.0293c-.88769,0-1.32714.91162-1.32714,2.17481,0,1.25537.43945,2.1748,1.32714,2.1748s1.32715-.91943,1.32715-2.1748C46.32617,51.97021,45.88672,51.05859,44.999,51.05859Z"
     transform="translate(0 0.00002)"
     id="path148" />
  <g
     id="g156">
    <path
       d="M40.13037,42.98682l-6.273-2.68653v-.9834l6.273-2.68652v.97119l-5.15723,2.207,5.15723,2.20655Z"
       transform="translate(0 0.00002)"
       id="path150" />
    <path
       d="M48.13379,39.16113H41.86133v-.876h6.27246Zm0,2.18262H41.86133v-.8877h6.27246Z"
       transform="translate(0 0.00002)"
       id="path152" />
    <path
       d="M56.1377,40.30029l-6.27247,2.68653v-.97168l5.15723-2.20655-5.15723-2.207v-.97119l6.27247,2.68652Z"
       transform="translate(0 0.00002)"
       id="path154" />
  </g>
</svg>
