<?xml version="1.0" encoding="UTF-8" standalone="no"?>
<svg
   xmlns:dc="http://purl.org/dc/elements/1.1/"
   xmlns:cc="http://creativecommons.org/ns#"
   xmlns:rdf="http://www.w3.org/1999/02/22-rdf-syntax-ns#"
   xmlns:svg="http://www.w3.org/2000/svg"
   xmlns="http://www.w3.org/2000/svg"
   xmlns:sodipodi="http://sodipodi.sourceforge.net/DTD/sodipodi-0.dtd"
   xmlns:inkscape="http://www.inkscape.org/namespaces/inkscape"
   id="svg8"
   width="89.99999"
   height="380.00004"
   viewBox="0 0 89.99999 380.00004"
   version="1.1"
   sodipodi:docname="FlipFlop.svg"
   inkscape:version="1.0.1 (3bc2e813f5, 2020-09-07)">
  <metadata
     id="metadata117">
    <rdf:RDF>
      <cc:Work
         rdf:about="">
        <dc:format>image/svg+xml</dc:format>
        <dc:type
           rdf:resource="http://purl.org/dc/dcmitype/StillImage" />
      </cc:Work>
    </rdf:RDF>
  </metadata>
  <defs
     id="defs115" />
  <sodipodi:namedview
     pagecolor="#ffffff"
     bordercolor="#666666"
     borderopacity="1"
     objecttolerance="10"
     gridtolerance="10"
     guidetolerance="10"
     inkscape:pageopacity="0"
     inkscape:pageshadow="2"
     inkscape:window-width="640"
     inkscape:window-height="480"
     id="namedview113"
     showgrid="false"
     inkscape:zoom="2.3296073"
     inkscape:cx="44.999996"
     inkscape:cy="204.62318"
     inkscape:current-layer="svg8"
     inkscape:document-rotation="0" />
  <title
     id="title2">FlipFlop</title>
  <g
     id="layer1">
    <path
       id="rect817"
       d="M0,0H90V380H0Z"
       transform="translate(0 0.00002)"
       style="fill: #f0f0f0" />
  </g>
  <g
     id="g22">
    <path
       d="M25.78415,361.57842H24.17823v-5.3311H18.10212v5.3311H16.49619V350.15468h1.60593v4.71854h6.07611v-4.71854h1.60593Z"
       transform="translate(0 0.00002)"
       style="fill:#000000"
       id="path6" />
    <path
       d="M33.99163,361.57842H27.17051V350.15468h6.68867v1.34109H28.77644v3.41053h4.8013v1.341h-4.8013v3.97347h5.21519Z"
       transform="translate(0 0.00002)"
       style="fill:#000000"
       id="path8" />
    <path
       d="M42.86514,351.49577H39.65329v10.08265h-1.606V351.49577H34.81891v-1.34109h8.04624Z"
       transform="translate(0 0.00002)"
       style="fill:#000000"
       id="path10" />
    <path
       d="M51.62163,361.57842H49.68452l-2.98-4.91715H45.47936v4.91715h-1.606V350.15468h3.22846a4.37325,4.37325,0,0,1,2.74834.79469A3.185,3.185,0,0,1,48.36,356.49568Zm-3.04632-9.70191a3.04673,3.04673,0,0,0-1.92045-.41389h-1.1755v3.87416h1.1755a3.15908,3.15908,0,0,0,1.92045-.39735,1.72712,1.72712,0,0,0,.72853-1.5397A1.69838,1.69838,0,0,0,48.57531,351.87651Z"
       transform="translate(0 0.00002)"
       style="fill:#000000"
       id="path12" />
    <path
       d="M54.41922,361.57842H52.81317V350.15468h1.60605Z"
       transform="translate(0 0.00002)"
       style="fill:#000000"
       id="path14" />
    <path
       d="M65.54207,360.08834A5.35543,5.35543,0,0,1,61.37,361.77709a5.89517,5.89517,0,1,1,4.05617-10.28133l-.67878,1.29135a4.52732,4.52732,0,0,0-3.31122-1.39071,4.45825,4.45825,0,0,0,0,8.90722,4.52188,4.52188,0,0,0,3.41059-1.39071Z"
       transform="translate(0 0.00002)"
       style="fill: #ed3224"
       id="path16" />
    <path
       d="M75.45235,361.57842H73.4987L69.70743,355.85l-1.1755,1.192v4.5364H66.92588V350.15468h1.60605v4.86753l4.65225-4.86753h1.95353l-4.35415,4.50326Z"
       transform="translate(0 0.00002)"
       style="fill: #ed3224"
       id="path18" />
    <path
       d="M75.45235,361.57842H73.4987L69.70743,355.85l-1.1755,1.192v4.5364H66.92588V357.019l1.60605.023,1.1755-1.192,1.07613-1.192.61637.91363.49748.7374Z"
       transform="translate(0 0.00002)"
       id="path20" />
  </g>
  <g
     id="g42">
    <path
       d="M19.48828,17.87109h-5.1499v4.14111h4.84375v1.4585H14.33838v5.36572H12.5918V16.4126h6.89648Z"
       transform="translate(0 0.00002)"
       id="path24" />
    <path
       d="M23.104,28.83643H21.39355V16.4126H23.104Z"
       transform="translate(0 0.00002)"
       id="path26" />
    <path
       d="M26.50586,18.5376a1.06379,1.06379,0,1,1,1.11621-1.0625A1.061,1.061,0,0,1,26.50586,18.5376Zm.86426,10.29883H25.6416V20.28369h1.72852Z"
       transform="translate(0 0.00002)"
       id="path28" />
    <path
       d="M34.58936,29.03467a3.32259,3.32259,0,0,1-2.95312-1.53076l-.01807-.01807v4.69971H29.88965V20.28369h1.65674v1.35059H31.582a3.62626,3.62626,0,0,1,3.043-1.5127c2.521,0,4.12354,1.89063,4.12354,4.42969C38.74854,27.08984,37.12793,29.03467,34.58936,29.03467Zm-.32422-7.5083a2.71952,2.71952,0,0,0-2.71875,3.00684,2.73424,2.73424,0,1,0,5.4375,0A2.71952,2.71952,0,0,0,34.26514,21.52637Z"
       transform="translate(0 0.00002)"
       id="path30" />
    <path
       d="M44.165,24.623H39.80762V23.18262H44.165Z"
       transform="translate(0 0.00002)"
       id="path32" />
    <path
       d="M52.87793,17.87109H47.72852v4.14111h4.84277v1.4585H47.72852v5.36572H45.98145V16.4126h6.89648Z"
       transform="translate(0 0.00002)"
       id="path34" />
    <path
       d="M56.49414,28.83643H54.7832V16.4126h1.71094Z"
       transform="translate(0 0.00002)"
       id="path36" />
    <path
       d="M62.91992,29.03467a4.457,4.457,0,1,1,4.51953-4.44727A4.336,4.336,0,0,1,62.91992,29.03467Zm0-7.5083a2.78283,2.78283,0,0,0-2.791,3.00684,2.792,2.792,0,1,0,5.56445,0A2.77938,2.77938,0,0,0,62.91992,21.52637Z"
       transform="translate(0 0.00002)"
       id="path38" />
    <path
       d="M74.00879,29.03467a3.32259,3.32259,0,0,1-2.95312-1.53076l-.01758-.01807v4.69971H69.30957V20.28369h1.65625v1.35059H71.002a3.625,3.625,0,0,1,3.043-1.5127c2.52051,0,4.123,1.89063,4.123,4.42969C78.168,27.08984,76.54688,29.03467,74.00879,29.03467Zm-.32422-7.5083a2.71925,2.71925,0,0,0-2.71875,3.00684,2.73424,2.73424,0,1,0,5.4375,0A2.71979,2.71979,0,0,0,73.68457,21.52637Z"
       transform="translate(0 0.00002)"
       id="path40" />
  </g>
  <g
     id="g50"
     transform="translate(0,-3.9997738)">
    <path
       d="m 15.40283,138 h -1.16308 v -8.27539 h 1.16309 z"
       transform="translate(0,2e-5)"
       id="path44" />
    <path
       d="m 22.06055,138 h -1.15137 v -3.17822 c 0,-0.95947 -0.16748,-1.6792 -1.187,-1.6792 -1.06738,0 -1.46338,0.89941 -1.46338,1.99121 V 138 h -1.15138 v -5.69678 h 1.15137 l -0.01172,0.89941 h 0.03564 a 1.92488,1.92488 0 0 1 1.73926,-1.00732 c 1.61914,0 2.03857,1.06738 2.03857,2.43457 z"
       transform="translate(0,2e-5)"
       id="path46" />
    <path
       d="M 31.1084,130.6958 H 28.78223 V 138 h -1.16407 v -7.3042 h -2.33837 v -0.97119 h 5.82861 z"
       transform="translate(0,2e-5)"
       id="path48" />
  </g>
  <g
     id="g58"
     transform="translate(0,-3.9997738)">
    <path
       d="m 58.5957,137.99951 h -1.16308 v -8.27539 h 1.16308 z"
       transform="translate(0,2e-5)"
       id="path52" />
    <path
       d="m 65.25391,137.99951 h -1.15137 v -3.17822 c 0,-0.95947 -0.168,-1.6792 -1.1875,-1.6792 -1.06738,0 -1.46289,0.89941 -1.46289,1.99121 v 2.86621 h -1.15137 v -5.69678 h 1.15137 l -0.01172,0.89941 h 0.03516 a 1.92545,1.92545 0 0 1 1.73926,-1.00732 c 1.61914,0 2.03906,1.06738 2.03906,2.43457 z"
       transform="translate(0,2e-5)"
       id="path54" />
    <path
       d="m 74.88867,136.91992 a 4.55434,4.55434 0 0 1 -3.09375,1.07959 h -2.49414 v -8.27539 h 2.49414 a 4.55434,4.55434 0 0 1 3.09375,1.07959 4.28333,4.28333 0 0 1 0,6.11621 z M 74.002,131.4873 a 3.15778,3.15778 0 0 0 -2.207,-0.76758 h -1.33113 v 6.27246 h 1.33105 a 3.16,3.16 0 0 0 2.207,-0.76758 3.3443,3.3443 0 0 0 0,-4.7373 z"
       transform="translate(0,2e-5)"
       id="path56" />
  </g>
  <rect
     x="24.429131"
     y="144.66669"
     width="41.14172"
     height="180.66667"
     rx="8"
     ry="8"
     id="rect62" />
  <g
     id="g70"
     style="fill:#f0f0f0;fill-opacity:1"
     transform="translate(-0.40650954)">
    <path
       d="m 41.57129,178.6958 h -3.43018 v 2.75879 h 3.22656 v 0.97119 H 38.14111 V 186 H 36.978 v -8.27539 h 4.59326 z"
       transform="translate(0,2e-5)"
       style="fill:#f0f0f0;fill-opacity:1"
       id="path64" />
    <path
       d="m 47.499,178.6958 h -3.43015 v 2.75879 h 3.22607 v 0.97119 H 44.06885 V 186 h -1.16309 v -8.27539 H 47.499 Z"
       transform="translate(0,2e-5)"
       style="fill:#f0f0f0;fill-opacity:1"
       id="path66" />
    <path
       d="M 53.835,178.6958 H 51.50781 V 186 h -1.16308 v -7.3042 h -2.33887 v -0.97119 H 53.835 Z"
       transform="translate(0,2e-5)"
       style="fill:#f0f0f0;fill-opacity:1"
       id="path68" />
  </g>
  <g
     id="g80"
     style="fill:#f0f0f0;fill-opacity:1"
     transform="translate(-0.32654456)">
    <path
       d="m 34.96143,321.45313 a 0.75063,0.75063 0 1 1 0.7915,-0.74316 0.73484,0.73484 0 0 1 -0.7915,0.74316 z m 0.59961,-8.39551 -0.10791,6.06934 h -0.99561 l -0.0957,-6.06934 z"
       transform="translate(0,2e-5)"
       style="fill:#f0f0f0;fill-opacity:1"
       id="path72" />
    <path
       d="m 42.26709,314.0293 h -3.43018 v 2.75879 h 3.22656 v 0.9707 h -3.22656 v 3.57421 h -1.16308 v -8.27539 h 4.59326 z"
       transform="translate(0,2e-5)"
       style="fill:#f0f0f0;fill-opacity:1"
       id="path74" />
    <path
       d="m 48.19434,314.0293 h -3.42969 v 2.75879 h 3.22656 v 0.9707 h -3.22656 v 3.57421 h -1.16309 v -8.27539 h 4.59277 z"
       transform="translate(0,2e-5)"
       style="fill:#f0f0f0;fill-opacity:1"
       id="path76" />
    <path
       d="m 55.11816,320.25391 a 4.55715,4.55715 0 0 1 -3.09473,1.0791 H 49.5293 v -8.27539 h 2.49414 a 4.55717,4.55717 0 0 1 3.09473,1.08008 4.28561,4.28561 0 0 1 0,6.11621 z m -0.8877,-5.43262 a 3.15372,3.15372 0 0 0 -2.207,-0.76758 h -1.33108 v 6.27246 h 1.33105 a 3.15824,3.15824 0 0 0 2.207,-0.76758 3.3443,3.3443 0 0 0 0,-4.7373 z"
       transform="translate(0,2e-5)"
       style="fill:#f0f0f0;fill-opacity:1"
       id="path78" />
  </g>
  <g
     id="g90"
     style="fill:#f0f0f0;fill-opacity:1"
     transform="translate(-0.50064097)">
    <path
       d="m 36.07129,276.12012 a 0.75109,0.75109 0 1 1 0.7915,-0.74414 0.735,0.735 0 0 1 -0.7915,0.74414 z m 0.59961,-8.39551 -0.1079,6.06839 h -0.99561 l -0.0957,-6.06836 z"
       transform="translate(0,2e-5)"
       style="fill:#f0f0f0;fill-opacity:1"
       id="path82" />
    <path
       d="m 43.377,268.69531 h -3.43022 v 2.75879 h 3.22656 v 0.97168 H 39.94678 V 276 h -1.16309 v -8.27539 H 43.377 Z"
       transform="translate(0,2e-5)"
       style="fill:#f0f0f0;fill-opacity:1"
       id="path84" />
    <path
       d="M 49.30469,268.69531 H 45.875 v 2.75879 h 3.22656 v 0.97168 H 45.875 V 276 h -1.16309 v -8.27539 h 4.59277 z"
       transform="translate(0,2e-5)"
       style="fill:#f0f0f0;fill-opacity:1"
       id="path86" />
    <path
       d="M 55.64063,268.69531 H 53.31348 V 276 h -1.16309 v -7.30469 h -2.33887 v -0.9707 h 5.8291 z"
       transform="translate(0,2e-5)"
       style="fill:#f0f0f0;fill-opacity:1"
       id="path88" />
  </g>
  <g
     id="g98"
     style="fill:#f0f0f0;fill-opacity:1"
     transform="translate(-0.23169879)">
    <path
       d="m 40.46094,224.0293 h -3.43018 v 2.75879 h 3.22656 v 0.9707 h -3.22656 v 3.57421 h -1.16308 v -8.27539 h 4.59326 z"
       transform="translate(0,2e-5)"
       style="fill:#f0f0f0;fill-opacity:1"
       id="path92" />
    <path
       d="M 46.38867,224.0293 H 42.9585 v 2.75879 h 3.22607 v 0.9707 H 42.9585 v 3.57421 h -1.16309 v -8.27539 h 4.59326 z"
       transform="translate(0,2e-5)"
       style="fill:#f0f0f0;fill-opacity:1"
       id="path94" />
    <path
       d="m 53.31152,230.25391 a 4.55433,4.55433 0 0 1 -3.09375,1.0791 h -2.49414 v -8.27539 h 2.49414 a 4.55435,4.55435 0 0 1 3.09375,1.08008 4.28333,4.28333 0 0 1 0,6.11621 z m -0.88672,-5.43262 a 3.15552,3.15552 0 0 0 -2.207,-0.76758 h -1.33108 v 6.27246 h 1.33105 a 3.16,3.16 0 0 0 2.207,-0.76758 3.3443,3.3443 0 0 0 0,-4.7373 z"
       transform="translate(0,2e-5)"
       style="fill:#f0f0f0;fill-opacity:1"
       id="path96" />
  </g>
  <g
     id="g104">
    <rect
       x="15.89329"
       y="43.12502"
       width="12.75"
       height="12.75"
       style="fill: none;stroke: #000;stroke-miterlimit: 10"
       id="rect100" />
    <path
       d="m 21.561088,52.864022 a 0.70367,0.70367 0 0 1 0.708,-0.74365 0.74457,0.74457 0 0 1 0,1.4873 0.70322,0.70322 0 0 1 -0.708,-0.74365 z m 0.30029,-1.71484 -0.168,-5.75684 h 1.15137 l -0.168,5.75684 z"
       id="path102" />
  </g>
  <g
     id="g110">
    <rect
       x="59.16706"
       y="43.12502"
       width="12.75"
       height="12.75"
       style="fill: none;stroke: #000;stroke-miterlimit: 10"
       id="rect106" />
    <path
       d="m 66.248978,46.136017 a 0.70339,0.70339 0 0 1 -0.708,0.74365 0.7446,0.7446 0 0 1 0,-1.4873 0.70322,0.70322 0 0 1 0.708,0.74365 z m -0.2998,1.71484 0.168,5.75684 h -1.15238 l 0.168,-5.75684 z"
       id="path108" />
  </g>
</svg>
