<?xml version="1.0" encoding="UTF-8" standalone="no"?>
<svg
   xmlns:dc="http://purl.org/dc/elements/1.1/"
   xmlns:cc="http://creativecommons.org/ns#"
   xmlns:rdf="http://www.w3.org/1999/02/22-rdf-syntax-ns#"
   xmlns:svg="http://www.w3.org/2000/svg"
   xmlns="http://www.w3.org/2000/svg"
   xmlns:sodipodi="http://sodipodi.sourceforge.net/DTD/sodipodi-0.dtd"
   xmlns:inkscape="http://www.inkscape.org/namespaces/inkscape"
   id="svg8"
   width="89.99999"
   height="380.00004"
   viewBox="0 0 89.99999 380.00004"
   version="1.1"
   sodipodi:docname="MyModule.svg"
   inkscape:version="1.0.1 (3bc2e813f5, 2020-09-07)">
  <metadata
     id="metadata29">
    <rdf:RDF>
      <cc:Work
         rdf:about="">
        <dc:format>image/svg+xml</dc:format>
        <dc:type
           rdf:resource="http://purl.org/dc/dcmitype/StillImage" />
      </cc:Work>
    </rdf:RDF>
  </metadata>
  <defs
     id="defs27" />
  <sodipodi:namedview
     pagecolor="#ffffff"
     bordercolor="#666666"
     borderopacity="1"
     objecttolerance="10"
     gridtolerance="10"
     guidetolerance="10"
     inkscape:pageopacity="0"
     inkscape:pageshadow="2"
     inkscape:window-width="640"
     inkscape:window-height="480"
     id="namedview25"
     showgrid="false"
     inkscape:zoom="1.9342104"
     inkscape:cx="44.999996"
     inkscape:cy="190.00002"
     inkscape:current-layer="g22" />
  <title
     id="title2">MyModule</title>
  <g
     id="layer1">
    <path
       id="rect817"
       d="M0,0H90V380H0Z"
       transform="translate(0 0.00002)"
       style="fill: #f0f0f0" />
  </g>
  <g
     id="g22">
    <path
       d="M20.80333,361.5345h-1.961v-6.50972H11.42293v6.50972H9.462V347.58515h1.961v5.76173h7.41943v-5.76173h1.961Z"
       transform="translate(0 0.00002)"
       style="fill:#000000"
       id="path6" />
    <path
       d="M30.82535,361.5345H22.49619V347.58515h8.16742v1.63758H24.45716v4.16454H30.32v1.63751H24.45716v4.85193h6.36818Z"
       transform="translate(0 0.00002)"
       style="fill:#000000"
       id="path8" />
    <path
       d="M41.66065,349.22273H37.73871V361.5345h-1.961V349.22273H31.83552v-1.63758h9.82513Z"
       transform="translate(0 0.00002)"
       style="fill:#000000"
       id="path10" />
    <path
       d="M52.353,361.5345H49.98767l-3.63887-6.00425h-1.496v6.00425h-1.961V347.58515H46.834a5.34011,5.34011,0,0,1,3.356.97039,3.88913,3.88913,0,0,1-1.81959,6.77251Zm-3.71982-11.84684a3.72031,3.72031,0,0,0-2.345-.50539H44.85282v4.73067h1.43538a3.8575,3.8575,0,0,0,2.345-.48519,2.109,2.109,0,0,0,.8896-1.88011A2.07386,2.07386,0,0,0,48.63323,349.68765Z"
       transform="translate(0 0.00002)"
       style="fill:#000000"
       id="path12" />
    <path
       d="M55.76914,361.5345H53.808V347.58515h1.96112Z"
       transform="translate(0 0.00002)"
       style="fill:#000000"
       id="path14" />
    <path
       d="M69.35107,359.715a6.53943,6.53943,0,0,1-5.09445,2.06211,7.19849,7.19849,0,1,1,4.95292-12.55436l-.82885,1.57684a5.52823,5.52823,0,0,0-4.04328-1.69818,5.44389,5.44389,0,0,0,0,10.87646,5.52159,5.52159,0,0,0,4.16461-1.69818Z"
       transform="translate(0 0.00002)"
       style="fill: #ed3224"
       id="path16" />
    <path
       d="M81.45235,361.5345H79.06678l-4.62946-6.99491-1.43538,1.45558v5.53933H71.04081V347.58515h1.96112v5.94366l5.68079-5.94366h2.38542L75.75137,353.084Z"
       transform="translate(0 0.00002)"
       style="fill: #ed3224"
       id="path18" />
    <path
       d="M81.45235,361.5345H79.06678l-4.62946-6.99491-1.43538,1.45558v5.53933H71.04081v-5.56737l1.96112.028,1.43538-1.45558,1.314-1.45558.75263,1.11562.60746.90043Z"
       transform="translate(0 0.00002)"
       id="path20" />
  </g>
</svg>
