<?xml version="1.0" encoding="UTF-8" standalone="no"?>
<svg
   xmlns:dc="http://purl.org/dc/elements/1.1/"
   xmlns:cc="http://creativecommons.org/ns#"
   xmlns:rdf="http://www.w3.org/1999/02/22-rdf-syntax-ns#"
   xmlns:svg="http://www.w3.org/2000/svg"
   xmlns="http://www.w3.org/2000/svg"
   xmlns:sodipodi="http://sodipodi.sourceforge.net/DTD/sodipodi-0.dtd"
   xmlns:inkscape="http://www.inkscape.org/namespaces/inkscape"
   id="svg8"
   width="89.99999"
   height="380.00004"
   viewBox="0 0 89.99999 380.00004"
   version="1.1"
   sodipodi:docname="Waveshape.svg"
   inkscape:version="1.0.1 (3bc2e813f5, 2020-09-07)">
  <metadata
     id="metadata191">
    <rdf:RDF>
      <cc:Work
         rdf:about="">
        <dc:format>image/svg+xml</dc:format>
        <dc:type
           rdf:resource="http://purl.org/dc/dcmitype/StillImage" />
      </cc:Work>
    </rdf:RDF>
  </metadata>
  <defs
     id="defs189" />
  <sodipodi:namedview
     pagecolor="#ffffff"
     bordercolor="#666666"
     borderopacity="1"
     objecttolerance="10"
     gridtolerance="10"
     guidetolerance="10"
     inkscape:pageopacity="0"
     inkscape:pageshadow="2"
     inkscape:window-width="640"
     inkscape:window-height="480"
     id="namedview187"
     showgrid="false"
     inkscape:zoom="1.8496687"
     inkscape:cx="37.896232"
     inkscape:cy="337.16455"
     inkscape:current-layer="svg8"
     inkscape:document-rotation="0" />
  <title
     id="title2">Waveshape</title>
  <g
     id="layer1">
    <path
       id="rect817"
       d="M0,0H90V380H0Z"
       transform="translate(0 0.00002)"
       style="fill: #f0f0f0" />
  </g>
  <rect
     style="fill:#000000;fill-opacity:1;stroke:none;stroke-width:0.884521;stroke-miterlimit:10;paint-order:markers fill stroke;stop-color:#000000"
     id="rect914"
     width="89.999992"
     height="16"
     x="5.3290705e-15"
     y="347.88577" />
  <g
     id="g22">
    <path
       d="M25.78415,361.57842H24.17823v-5.3311H18.10212v5.3311H16.49619V350.15468h1.60593v4.71854h6.07611v-4.71854h1.60593Z"
       transform="translate(0 0.00002)"
       style="fill:#f0f0f0;fill-opacity:1"
       id="path6" />
    <path
       d="M33.99163,361.57842H27.17051V350.15468h6.68867v1.34109H28.77644v3.41053h4.8013v1.341h-4.8013v3.97347h5.21519Z"
       transform="translate(0 0.00002)"
       style="fill:#f0f0f0;fill-opacity:1"
       id="path8" />
    <path
       d="M42.86514,351.49577H39.65329v10.08265h-1.606V351.49577H34.81891v-1.34109h8.04624Z"
       transform="translate(0 0.00002)"
       style="fill:#f0f0f0;fill-opacity:1"
       id="path10" />
    <path
       d="M51.62163,361.57842H49.68452l-2.98-4.91715H45.47936v4.91715h-1.606V350.15468h3.22846a4.37325,4.37325,0,0,1,2.74834.79469A3.185,3.185,0,0,1,48.36,356.49568Zm-3.04632-9.70191a3.04673,3.04673,0,0,0-1.92045-.41389h-1.1755v3.87416h1.1755a3.15908,3.15908,0,0,0,1.92045-.39735,1.72712,1.72712,0,0,0,.72853-1.5397A1.69838,1.69838,0,0,0,48.57531,351.87651Z"
       transform="translate(0 0.00002)"
       style="fill:#f0f0f0;fill-opacity:1"
       id="path12" />
    <path
       d="M54.41922,361.57842H52.81317V350.15468h1.60605Z"
       transform="translate(0 0.00002)"
       style="fill:#f0f0f0;fill-opacity:1"
       id="path14" />
    <path
       d="M65.54207,360.08834A5.35543,5.35543,0,0,1,61.37,361.77709a5.89517,5.89517,0,1,1,4.05617-10.28133l-.67878,1.29135a4.52732,4.52732,0,0,0-3.31122-1.39071,4.45825,4.45825,0,0,0,0,8.90722,4.52188,4.52188,0,0,0,3.41059-1.39071Z"
       transform="translate(0 0.00002)"
       style="fill: #ed3224"
       id="path16" />
    <path
       d="M75.45235,361.57842H73.4987L69.70743,355.85l-1.1755,1.192v4.5364H66.92588V350.15468h1.60605v4.86753l4.65225-4.86753h1.95353l-4.35415,4.50326Z"
       transform="translate(0 0.00002)"
       style="fill: #ed3224"
       id="path18" />
    <path
       d="M75.45235,361.57842H73.4987L69.70743,355.85l-1.1755,1.192v4.5364H66.92588V357.019l1.60605.023,1.1755-1.192,1.07613-1.192.61637.91363.49748.7374Z"
       transform="translate(0 0.00002)"
       id="path20"
       style="fill:#f0f0f0;fill-opacity:1" />
  </g>
  <g
     id="g36">
    <path
       d="M25.36475,28.08008a4.70324,4.70324,0,0,1-3.043.97217,5.20312,5.20312,0,0,1-4.01514-2.08838L19.333,25.79346a4.20067,4.20067,0,0,0,3.15088,1.78271,2.17426,2.17426,0,0,0,2.43066-2.08887c0-1.29639-1.38623-1.80029-2.0166-2.05225-.64844-.25244-1.5127-.59424-1.98047-.82861a3.99817,3.99817,0,0,1-1.24268-.88232,2.98374,2.98374,0,0,1-.81006-2.16064A3.09076,3.09076,0,0,1,19.999,17.16895a4.36141,4.36141,0,0,1,2.86279-.91846A4.84357,4.84357,0,0,1,26.42676,17.853l-.918,1.18848A3.77531,3.77531,0,0,0,22.772,17.709c-1.22461,0-2.16064.57617-2.16064,1.72852s.84619,1.58447,1.60254,1.89063l2.28662.95459a4.84547,4.84547,0,0,1,1.4043,1.00781,3.20066,3.20066,0,0,1,.75635,2.08887A3.45966,3.45966,0,0,1,25.36475,28.08008Z"
       transform="translate(0 0.00002)"
       id="path24" />
    <path
       d="M36.02051,28.83643H34.292V23.99316c0-1.22461-.19775-2.44873-1.76416-2.44873s-2.23291,1.3501-2.23291,3.06055v4.23145H28.58447V16.4126h1.71045v5.22168h.03613A2.91853,2.91853,0,0,1,32.96,20.12158c2.4668,0,3.06055,1.585,3.06055,3.61914Z"
       transform="translate(0 0.00002)"
       id="path26" />
    <path
       d="M45.00244,28.83643h-1.6748l-.01807-1.08008a3.52814,3.52814,0,0,1-2.71875,1.27832,2.71692,2.71692,0,0,1-2.95264-2.647c0-1.67432,1.36816-2.521,3.34912-2.61084l2.28662-.08984v-.34229a1.87683,1.87683,0,0,0-2.125-1.94434,5.25748,5.25748,0,0,0-2.57471.73779l-.522-1.15234a6.59057,6.59057,0,0,1,3.20508-.86426,3.707,3.707,0,0,1,2.82666.97266,3.5417,3.5417,0,0,1,.91846,2.77246ZM43.292,24.731l-1.999.12646c-1.38623.07178-1.94434.666-1.94434,1.47607,0,.81055.62988,1.47656,1.76465,1.47656A2.68647,2.68647,0,0,0,43.292,26.56787Z"
       transform="translate(0 0.00002)"
       id="path28" />
    <path
       d="M51.98535,29.03467a3.32259,3.32259,0,0,1-2.95312-1.53076l-.01758-.01807v4.69971H47.28613V20.28369h1.65625v1.35059h.03613a3.625,3.625,0,0,1,3.043-1.5127c2.52051,0,4.123,1.89063,4.123,4.42969C56.14453,27.08984,54.52344,29.03467,51.98535,29.03467Zm-.32422-7.5083a2.71925,2.71925,0,0,0-2.71875,3.00684,2.73424,2.73424,0,1,0,5.4375,0A2.71979,2.71979,0,0,0,51.66113,21.52637Z"
       transform="translate(0 0.00002)"
       id="path30" />
    <path
       d="M65.70117,24.96533H59.11133a2.63713,2.63713,0,0,0,2.75488,2.71875,4.73357,4.73357,0,0,0,2.82715-.99023l.71973.99023a5.02142,5.02142,0,0,1-3.7627,1.35059,4.147,4.147,0,0,1-4.28516-4.4834,4.24249,4.24249,0,0,1,4.33887-4.42969,3.90514,3.90514,0,0,1,4.05176,4.0874A7.36492,7.36492,0,0,1,65.70117,24.96533Zm-1.584-1.15234a2.47133,2.47133,0,0,0-2.4668-2.44873A2.51551,2.51551,0,0,0,59.12988,23.813Z"
       transform="translate(0 0.00002)"
       id="path32" />
    <path
       d="M72.126,21.86816h-.07227a2.26313,2.26313,0,0,0-.93555-.17969,1.7886,1.7886,0,0,0-1.4043.72021,3.78778,3.78778,0,0,0-.52246,2.16064v4.26709H67.46289V20.28369h1.72852l-.01855,1.31445h.05469A2.23291,2.23291,0,0,1,71.334,20.12158a2.39763,2.39763,0,0,1,.90039.14453Z"
       transform="translate(0 0.00002)"
       id="path34" />
  </g>
  <g
     id="g50"
     transform="translate(0,2.0003)">
    <path
       d="M 32.23438,178.333 H 30.939 l -0.85156,-2.15869 H 26.5376 L 25.686,178.333 h -1.22311 l 3.37012,-8.29932 h 1.019 z m -2.4707,-3.13037 -1.45117,-3.71777 -1.45117,3.71777 z"
       transform="translate(0,2e-5)"
       id="path38" />
    <path
       d="M 41.29346,178.333 H 40.1543 v -3.32227 c 0,-0.65967 -0.12012,-1.53516 -1.04346,-1.53516 -0.91162,0 -1.36719,0.87549 -1.36719,1.895 v 2.9624 h -1.15136 v -3.32227 c 0,-0.83936 -0.2041,-1.53516 -1.03174,-1.53516 -0.91162,0 -1.36719,0.87549 -1.36719,1.895 v 2.9624 H 33.042 v -5.69678 h 1.15137 l -0.01172,0.89941 h 0.03564 a 1.87975,1.87975 0 0 1 1.64307,-1.00732 1.64343,1.64343 0 0 1 1.69141,1.12744 1.97734,1.97734 0 0 1 1.811,-1.12744 c 1.52295,0 1.93066,1.11523 1.93066,2.35059 z"
       transform="translate(0,2e-5)"
       id="path40" />
    <path
       d="m 45.47266,178.46484 a 2.96855,2.96855 0 1 1 3.00977,-2.9624 2.88814,2.88814 0 0 1 -3.00977,2.9624 z m 0,-5.001 a 2.0159,2.0159 0 1 0 1.84668,2.00293 1.8533,1.8533 0 0 0 -1.84668,-2.0029 z"
       transform="translate(0,2e-5)"
       id="path42" />
    <path
       d="M 54.53125,178.333 H 53.416 l -0.0127,-0.81543 a 1.98456,1.98456 0 0 1 -1.7627,0.94727 1.84524,1.84524 0 0 1 -1.583,-0.65967 2.891,2.891 0 0 1 -0.41992,-1.7627 V 172.624 h 1.13965 v 3.37012 c 0,0.77979 0.168,1.51123 1.1875,1.51123 1.00684,0 1.415,-0.86328 1.415,-1.82275 v -3.0586 h 1.15137 z"
       transform="translate(0,2e-5)"
       id="path44" />
    <path
       d="m 61.07129,178.333 h -1.15137 v -3.17822 c 0,-0.95947 -0.168,-1.6792 -1.1875,-1.6792 -1.06738,0 -1.46289,0.89941 -1.46289,1.99121 v 2.86621 h -1.15137 v -5.69678 h 1.15137 l -0.0127,0.89941 H 57.293 a 1.92545,1.92545 0 0 1 1.73926,-1.00732 c 1.61914,0 2.03906,1.06738 2.03906,2.43457 z"
       transform="translate(0,2e-5)"
       id="path46" />
    <path
       d="m 65.38086,178.27295 a 2.89165,2.89165 0 0 1 -1.04395,0.19189 1.337,1.337 0 0 1 -1.21094,-0.5874 2.971,2.971 0 0 1 -0.28809,-1.70312 v -2.60254 H 61.998 v -0.92383 h 0.83984 v -1.70312 h 1.15137 v 1.70313 h 1.36719 v 0.92383 h -1.36714 v 2.57861 a 2.24273,2.24273 0 0 0 0.14355,1.04346 0.59712,0.59712 0 0 0 0.58789,0.2876 1.39119,1.39119 0 0 0 0.58789,-0.13184 z"
       transform="translate(0,2e-5)"
       id="path48" />
  </g>
  <g
     id="g56">
    <path
       d="M42.335,270.666H41.17188v-8.27539H42.335Z"
       transform="translate(0 0.00002)"
       id="path52" />
    <path
       d="M48.99219,270.666H47.84082v-3.17773c0-.96-.167-1.67969-1.18652-1.67969-1.06738,0-1.46338.89941-1.46338,1.99121V270.666H44.03955v-5.69629h1.15137l-.01172.89941h.03564a1.92469,1.92469,0,0,1,1.73926-1.00781c1.61914,0,2.03809,1.06738,2.03809,2.43457Z"
       transform="translate(0 0.00002)"
       id="path54" />
  </g>
  <rect
     x="24.42913"
     y="280.00002"
     width="41.14172"
     height="45.33333"
     rx="8"
     ry="8"
     id="rect58" />
  <g
     id="g66"
     style="fill:#f0f0f0;fill-opacity:1">
    <path
       d="M39.91553,321.47754a4.26953,4.26953,0,1,1,4.26953-4.26953A4.1111,4.1111,0,0,1,39.91553,321.47754Zm0-7.53125a3.2417,3.2417,0,1,0,3.08252,3.2373A3.02724,3.02724,0,0,0,39.91553,313.94629Z"
       transform="translate(0 0.00002)"
       style="fill:#f0f0f0;fill-opacity:1"
       id="path60" />
    <path
       d="M50.27051,321.334H49.15527l-.01172-.81543a1.9869,1.9869,0,0,1-1.7627.94727,1.8454,1.8454,0,0,1-1.583-.66016,2.891,2.891,0,0,1-.41992-1.7627v-3.418H46.5166v3.37012c0,.7793.168,1.51074,1.1875,1.51074,1.00781,0,1.415-.86328,1.415-1.82227V315.625h1.15137Z"
       transform="translate(0 0.00002)"
       style="fill:#f0f0f0;fill-opacity:1"
       id="path62" />
    <path
       d="M54.62793,321.27344a2.88537,2.88537,0,0,1-1.04395.19238,1.3352,1.3352,0,0,1-1.21094-.58789,2.97,2.97,0,0,1-.28809-1.70312v-2.60254h-.83984v-.92383H52.085v-1.70215h1.15137v1.70215h1.36719v.92383H53.23633v2.5791a2.24047,2.24047,0,0,0,.14355,1.043.59736.59736,0,0,0,.58789.28809,1.39119,1.39119,0,0,0,.58789-.13184Z"
       transform="translate(0 0.00002)"
       style="fill:#f0f0f0;fill-opacity:1"
       id="path64" />
  </g>
  <rect
     x="37.500751"
     y="144.00002"
     width="14.9985"
     height="14.66667"
     style="fill:none"
     id="rect68" />
  <rect
     x="37.500751"
     y="129.33334"
     width="14.9985"
     height="14.66667"
     style="fill:none"
     id="rect78" />
  <rect
     x="37.500751"
     y="114.66669"
     width="14.9985"
     height="14.66666"
     style="fill:none"
     id="rect88" />
  <rect
     x="37.500751"
     y="100.00002"
     width="14.9985"
     height="14.66667"
     style="fill:none"
     id="rect98" />
  <rect
     x="37.500751"
     y="85.333359"
     width="14.9985"
     height="14.66666"
     style="fill:none"
     id="rect108" />
  <g
     id="g1098">
    <rect
       x="44.469452"
       y="145.08362"
       width="1.5"
       height="2.7223699"
       style="fill:#000000"
       id="rect70" />
    <rect
       x="44.469452"
       y="149.96634"
       width="1.5"
       height="2.7223699"
       style="fill:#000000"
       id="rect72" />
    <rect
       x="44.469452"
       y="154.83305"
       width="1.5"
       height="2.7223699"
       style="fill:#000000"
       id="rect74" />
    <rect
       x="44.469452"
       y="130.41698"
       width="1.5"
       height="2.7223499"
       style="fill:#000000"
       id="rect80" />
    <rect
       x="44.469452"
       y="135.29968"
       width="1.5"
       height="2.7223499"
       style="fill:#000000"
       id="rect82" />
    <rect
       x="44.469452"
       y="140.1664"
       width="1.5"
       height="2.7223699"
       style="fill:#000000"
       id="rect84" />
    <rect
       x="44.469452"
       y="115.75029"
       width="1.5"
       height="2.7223699"
       style="fill:#000000"
       id="rect90" />
    <rect
       x="44.469452"
       y="120.63302"
       width="1.5"
       height="2.7223699"
       style="fill:#000000"
       id="rect92" />
    <rect
       x="44.469452"
       y="125.49973"
       width="1.5"
       height="2.7223499"
       style="fill:#000000"
       id="rect94" />
    <rect
       x="44.469452"
       y="101.08364"
       width="1.5"
       height="2.7223499"
       style="fill:#000000"
       id="rect100" />
    <rect
       x="44.469452"
       y="105.96636"
       width="1.5"
       height="2.7223499"
       style="fill:#000000"
       id="rect102" />
    <rect
       x="44.469452"
       y="110.83306"
       width="1.5"
       height="2.7223699"
       style="fill:#000000"
       id="rect104" />
    <rect
       x="44.469452"
       y="86.416946"
       width="1.5"
       height="2.7223799"
       style="fill:#000000"
       id="rect110" />
    <rect
       x="44.469452"
       y="91.299667"
       width="1.5"
       height="2.7223799"
       style="fill:#000000"
       id="rect112" />
    <rect
       x="44.469452"
       y="96.166397"
       width="1.5"
       height="2.7223499"
       style="fill:#000000"
       id="rect114" />
  </g>
  <g
     id="g124">
    <path
       d="M39.75244,133.12988H37.81738v-.63965h1.93506Z"
       transform="translate(0 0.00002)"
       id="path120" />
    <path
       d="M54.375,132.5376H52.584v1.791h-.5918v-1.791H50.19336v-.5918h1.79883v-1.791h.5918v1.791h1.791Z"
       transform="translate(0 0.00002)"
       id="path122" />
  </g>
  <g
     id="g136">
    <path
       d="M13.81738,207.78711h-1.791v1.791h-.5918v-1.791H9.63574v-.5918h1.79883v-1.791h.5918v1.791h1.791Z"
       transform="translate(0 0.00002)"
       id="path126" />
    <path
       d="M18.40186,204.165l-3.32617,6.82813-.51172-.23145,3.32617-6.82031Z"
       transform="translate(0 0.00002)"
       id="path128" />
    <path
       d="M20.69043,208.37891H18.75537v-.63965h1.93506Z"
       transform="translate(0 0.00002)"
       id="path130" />
    <path
       d="M24.65869,210.3457a2.03889,2.03889,0,0,1-1.81494-.92773l.43164-.44727a1.60419,1.60419,0,0,0,1.37549.73535,1.22438,1.22438,0,1,0,0-2.44629,1.57062,1.57062,0,0,0-.97559.2959l-.39209-.23242.48-2.58984H26.5376v.623H24.32275l-.2876,1.46387a1.91735,1.91735,0,0,1,.7832-.14453,1.79616,1.79616,0,0,1,1.87939,1.80762A1.8948,1.8948,0,0,1,24.65869,210.3457Z"
       transform="translate(0 0.00002)"
       id="path132" />
    <path
       d="M31.9292,204.7334l-2.03076,5.52441h-.6875l-2.03125-5.52441h.83154l1.55127,4.39746,1.55127-4.39746Z"
       transform="translate(0 0.00002)"
       id="path134" />
  </g>
  <g
     id="g148">
    <path
       d="M38.56982,197.5h-.93555l-1.439-2.375h-.5918V197.5h-.77539v-5.5166h1.55908a2.112,2.112,0,0,1,1.32715.38379,1.53755,1.53755,0,0,1-.71973,2.67773Zm-1.47119-4.68555a1.47436,1.47436,0,0,0-.92773-.2002h-.56738v1.87109h.56738a1.52761,1.52761,0,0,0,.92773-.19141.83506.83506,0,0,0,.35156-.74414A.81976.81976,0,0,0,37.09863,192.81445Z"
       transform="translate(0 0.00002)"
       id="path138" />
    <path
       d="M42.01807,197.5h-.74365l-.00781-.47949a1.569,1.569,0,0,1-1.20752.56738,1.20627,1.20627,0,0,1-1.311-1.17578c0-.74316.60742-1.11914,1.4873-1.15918l1.01514-.04v-.15137a.83291.83291,0,0,0-.94336-.86328,2.33318,2.33318,0,0,0-1.14355.32715l-.23193-.51172a2.92522,2.92522,0,0,1,1.42334-.38379,1.64616,1.64616,0,0,1,1.25537.43164,1.5746,1.5746,0,0,1,.40771,1.23145Zm-.75928-1.82324-.8877.05664c-.61572.03125-.86377.2959-.86377.65527s.27979.65527.78369.65527a1.19366,1.19366,0,0,0,.96777-.55176Z"
       transform="translate(0 0.00002)"
       id="path140" />
    <path
       d="M46.30664,197.5h-.76807v-2.11914c0-.63965-.1123-1.11914-.7915-1.11914-.71191,0-.97559.59961-.97559,1.32715V197.5h-.76758v-3.79785h.76758l-.0083.59961h.02393a1.28354,1.28354,0,0,1,1.15967-.67187c1.07959,0,1.35986.71191,1.35986,1.623Z"
       transform="translate(0 0.00002)"
       id="path142" />
    <path
       d="M51.00977,196.7002a2.41239,2.41239,0,0,1-.416,1.63965,2.00663,2.00663,0,0,1-1.69531.72754,2.91708,2.91708,0,0,1-1.69531-.56836l.36035-.53516a2.40742,2.40742,0,0,0,1.3584.47949,1.2662,1.2662,0,0,0,1.04-.416,1.70984,1.70984,0,0,0,.28809-1.06348v-.19141h-.01562a1.52333,1.52333,0,0,1-1.32812.67969,1.91293,1.91293,0,0,1,0-3.82227,1.52064,1.52064,0,0,1,1.32813.67188h.02344l-.00781-.59961h.75977Zm-1.94336-2.4541a1.29394,1.29394,0,1,0,1.207,1.29492A1.18574,1.18574,0,0,0,49.06641,194.24609Z"
       transform="translate(0 0.00002)"
       id="path144" />
    <path
       d="M55.52148,195.78125H52.5957a1.17029,1.17029,0,0,0,1.22266,1.207,2.10486,2.10486,0,0,0,1.25586-.43945l.31934.43945a2.23122,2.23122,0,0,1-1.6709.59961,1.84128,1.84128,0,0,1-1.90234-1.99121,1.88335,1.88335,0,0,1,1.92578-1.9668,1.73417,1.73417,0,0,1,1.7998,1.81543A3.26736,3.26736,0,0,1,55.52148,195.78125Zm-.70312-.51172a1.098,1.098,0,0,0-1.0957-1.08789,1.11685,1.11685,0,0,0-1.11914,1.08789Z"
       transform="translate(0 0.00002)"
       id="path146" />
  </g>
  <g
     id="g162">
    <path
       d="M62.82422,207.78711h-1.791v1.791h-.5918v-1.791H58.64258v-.5918h1.79883v-1.791h.5918v1.791h1.791Z"
       transform="translate(0 0.00002)"
       id="path150" />
    <path
       d="M67.4082,204.165,64.082,210.99316l-.51172-.23145,3.32617-6.82031Z"
       transform="translate(0 0.00002)"
       id="path152" />
    <path
       d="M69.69727,208.37891H67.76172v-.63965h1.93555Z"
       transform="translate(0 0.00002)"
       id="path154" />
    <path
       d="M73.81641,210.25h-.751v-4.94922h-1.0791v-.56738h1.83008Z"
       transform="translate(0 0.00002)"
       id="path156" />
    <path
       d="M77.32031,210.33789c-1.48633,0-2.11035-1.40723-2.11035-2.83789,0-1.43945.63184-2.84668,2.11035-2.84668,1.48828,0,2.11133,1.40723,2.11133,2.84668C79.43164,208.93066,78.80859,210.33789,77.32031,210.33789Zm0-5.0293c-.88672,0-1.32617.91211-1.32617,2.1748,0,1.25586.43945,2.1748,1.32617,2.1748.8877,0,1.32813-.91895,1.32813-2.1748C78.64844,206.2207,78.208,205.30859,77.32031,205.30859Z"
       transform="translate(0 0.00002)"
       id="path158" />
    <path
       d="M84.42383,204.7334l-2.03125,5.52441h-.6875l-2.03125-5.52441h.832l1.55078,4.39746,1.55078-4.39746Z"
       transform="translate(0 0.00002)"
       id="path160" />
  </g>
  <path
     d="M37.79541,46c2.40043,0,2.40043,8,4.80086,8,2.40208,0,2.40208-8,4.80416-8s2.40208,8,4.80416,8"
     transform="translate(0 0.00002)"
     style="fill:none;stroke:#000;stroke-miterlimit:10;stroke-width:1;stroke-dasharray:none"
     id="path164" />
  <path
     id="line170"
     style="fill:none;stroke:#000000;stroke-width:1;stroke-miterlimit:10;stroke-dasharray:none"
     d="m 11.269,79.317703 -0.003,7.077339 m 5.500001,-14.25 -0.016,7.077561 m -9.93859,0.172439 14.409181,-0.25" />
  <path
     style="fill:none;stroke:#000000;stroke-width:1px;stroke-linecap:butt;stroke-linejoin:miter;stroke-opacity:1"
     d="m 68.289291,73.647797 v 9.25 h 7.20459 v -9.25 h 7.204589 v 9.25 0 0"
     id="path1036" />
</svg>
